# 3ds Max Wavefront OBJ Exporter v0.97b - (c)2007 guruware
# File Created: 23.11.2019 03:50:39

#
# object Box001
#

v  0.0000 0.0000 -4.0000
v  16.0000 0.0000 -4.0000
v  16.0000 0.0000 0.0000
v  0.0000 0.0000 0.0000
v  0.0000 16.0000 -4.0000
v  0.0000 16.0000 0.0000
# 6 vertices

vn 0.0000 -1.0000 0.0000
vn -1.0000 0.0000 0.0000
vn 0.7071 0.7071 0.0000
# 3 vertex normals

vt 0.0000 0.5000 0.0005
vt 1.0000 0.5000 0.0005
vt 1.0000 0.7500 0.0005
vt 0.0000 0.7500 0.0005
vt 1.0000 0.9995 0.0005
vt 0.0000 0.9995 0.0005
vt 0.0000 0.5000 0.9995
vt 0.0000 0.2500 0.9995
vt 1.0000 0.2500 0.0005
# 9 texture coords

g Box001
f 1/1/1 2/2/1 3/3/1 
f 3/3/1 4/4/1 1/1/1 
f 5/4/2 1/3/2 4/5/2 
f 4/5/2 6/6/2 5/4/2 
f 6/2/3 3/7/3 2/8/3 
f 2/8/3 5/9/3 6/2/3 
# 6 faces

