# 3ds Max Wavefront OBJ Exporter v0.97b - (c)2007 guruware
# File Created: 08.12.2019 09:30:41

#
# object Plane003
#

v  0.0000 0.0000 0.0000
v  2.0000 0.0000 -0.0100
v  2.3818 2.0000 -0.0100
v  0.0000 2.0000 -0.0100
v  2.2137 3.0000 -0.4000
v  0.0000 3.0000 -0.4000
v  3.0000 0.0000 -0.4000
v  3.4726 2.0000 -0.4000
v  3.2137 3.0000 -0.4000
# 9 vertices

vn 0.0022 0.0024 1.0000
vn 0.0050 -0.0010 1.0000
vn 0.0012 0.1881 0.9822
vn 0.0000 0.1873 0.9823
vn 0.0000 0.3633 0.9317
vn 0.3625 -0.0692 0.9294
vn 0.3356 -0.0793 0.9387
vn -0.0000 0.3633 0.9317
vn 0.3354 0.0868 0.9381
# 9 vertex normals

vt 0.5000 1.0000 0.9995
vt 0.3750 1.0000 0.9995
vt 0.3750 0.8749 0.9995
vt 0.5000 0.8749 0.9995
vt 0.3750 0.8000 0.0005
vt 0.5000 0.8000 0.0005
vt 0.3000 1.0000 0.0005
vt 0.3000 0.8749 0.0005
vt 0.3000 0.8000 0.0005
# 9 texture coords

g Plane003
f 1/1/1 2/2/2 3/3/3 
f 3/3/3 4/4/4 1/1/1 
f 4/4/4 3/3/3 5/5/5 
f 5/5/5 6/6/5 4/4/4 
f 3/3/6 2/2/6 7/7/6 
f 7/7/7 8/8/7 3/3/7 
f 5/5/8 3/3/8 9/9/8 
f 3/3/9 8/8/9 9/9/9 
# 8 faces

