# 3ds Max Wavefront OBJ Exporter v0.97b - (c)2007 guruware
# File Created: 01.12.2019 18:23:33

#
# object Box068
#

v  3.7500 -0.2500 -2.5000
v  4.2500 -0.2500 -2.5000
v  4.2500 -0.2500 1.5000
v  3.7500 -0.2500 1.5000
v  4.2500 0.2500 -2.5000
v  4.2500 0.2500 1.5000
v  3.7500 0.2500 -2.5000
v  3.7500 0.2500 1.5000
# 8 vertices

vn 0.0000 -1.0000 0.0000
vn 1.0000 0.0000 0.0000
vn 0.0000 1.0000 0.0000
vn -1.0000 0.0000 0.0000
# 4 vertex normals

vt 0.0000 0.0000 0.0000
vt 1.0000 0.0000 0.0000
vt 1.0000 1.0000 0.0000
vt 0.0000 1.0000 0.0000
# 4 texture coords

g Box068
f 1/1/1 2/2/1 3/3/1 
f 3/3/1 4/4/1 1/1/1 
f 2/1/2 5/2/2 6/3/2 
f 6/3/2 3/4/2 2/1/2 
f 5/1/3 7/2/3 8/3/3 
f 8/3/3 6/4/3 5/1/3 
f 7/1/4 1/2/4 4/3/4 
f 4/3/4 8/4/4 7/1/4 
# 8 faces

#
# object Box069
#

v  11.7500 -0.2500 -2.5000
v  12.2500 -0.2500 -2.5000
v  12.2500 -0.2500 1.5000
v  11.7500 -0.2500 1.5000
v  12.2500 0.2500 -2.5000
v  12.2500 0.2500 1.5000
v  11.7500 0.2500 -2.5000
v  11.7500 0.2500 1.5000
# 8 vertices

vn 0.0000 -1.0000 0.0000
vn 1.0000 0.0000 0.0000
vn 0.0000 1.0000 0.0000
vn -1.0000 0.0000 0.0000
# 4 vertex normals

vt 0.0000 0.0000 0.0000
vt 1.0000 0.0000 0.0000
vt 1.0000 1.0000 0.0000
vt 0.0000 1.0000 0.0000
# 4 texture coords

g Box069
f 9/5/5 10/6/5 11/7/5 
f 11/7/5 12/8/5 9/5/5 
f 10/5/6 13/6/6 14/7/6 
f 14/7/6 11/8/6 10/5/6 
f 13/5/7 15/6/7 16/7/7 
f 16/7/7 14/8/7 13/5/7 
f 15/5/8 9/6/8 12/7/8 
f 12/7/8 16/8/8 15/5/8 
# 8 faces

#
# object Box070
#

v  3.7500 15.7500 -2.5000
v  4.2500 15.7500 -2.5000
v  4.2500 15.7500 1.5000
v  3.7500 15.7500 1.5000
v  4.2500 16.2500 -2.5000
v  4.2500 16.2500 1.5000
v  3.7500 16.2500 -2.5000
v  3.7500 16.2500 1.5000
# 8 vertices

vn 0.0000 -1.0000 0.0000
vn 1.0000 0.0000 0.0000
vn 0.0000 1.0000 0.0000
vn -1.0000 0.0000 0.0000
# 4 vertex normals

vt 0.0000 0.0000 0.0000
vt 1.0000 0.0000 0.0000
vt 1.0000 1.0000 0.0000
vt 0.0000 1.0000 0.0000
# 4 texture coords

g Box070
f 17/9/9 18/10/9 19/11/9 
f 19/11/9 20/12/9 17/9/9 
f 18/9/10 21/10/10 22/11/10 
f 22/11/10 19/12/10 18/9/10 
f 21/9/11 23/10/11 24/11/11 
f 24/11/11 22/12/11 21/9/11 
f 23/9/12 17/10/12 20/11/12 
f 20/11/12 24/12/12 23/9/12 
# 8 faces

#
# object Box071
#

v  11.7500 15.7500 -2.5000
v  12.2500 15.7500 -2.5000
v  12.2500 15.7500 1.5000
v  11.7500 15.7500 1.5000
v  12.2500 16.2500 -2.5000
v  12.2500 16.2500 1.5000
v  11.7500 16.2500 -2.5000
v  11.7500 16.2500 1.5000
# 8 vertices

vn 0.0000 -1.0000 0.0000
vn 1.0000 0.0000 0.0000
vn 0.0000 1.0000 0.0000
vn -1.0000 0.0000 0.0000
# 4 vertex normals

vt 0.0000 0.0000 0.0000
vt 1.0000 0.0000 0.0000
vt 1.0000 1.0000 0.0000
vt 0.0000 1.0000 0.0000
# 4 texture coords

g Box071
f 25/13/13 26/14/13 27/15/13 
f 27/15/13 28/16/13 25/13/13 
f 26/13/14 29/14/14 30/15/14 
f 30/15/14 27/16/14 26/13/14 
f 29/13/15 31/14/15 32/15/15 
f 32/15/15 30/16/15 29/13/15 
f 31/13/16 25/14/16 28/15/16 
f 28/15/16 32/16/16 31/13/16 
# 8 faces

