# 3ds Max Wavefront OBJ Exporter v0.97b - (c)2007 guruware
# File Created: 10.12.2019 03:34:21

#
# object ground_d
#

v  4.5000 16.0000 -0.2000
v  0.0000 11.5000 -0.2000
v  0.0000 4.5000 -0.2000
v  11.5000 16.0000 -0.2000
v  0.0000 12.0000 0.0000
v  4.0000 16.0000 0.0000
v  0.0000 16.0000 0.0000
v  0.0000 0.0000 0.0000
v  16.0000 16.0000 0.0000
v  12.0000 16.0000 0.0000
v  0.0000 4.0000 0.0000
# 11 vertices

vn 0.0000 0.0000 1.0000
vn 0.3482 -0.3482 0.8704
vn -0.3482 0.3482 0.8704
# 3 vertex normals

vt 0.2812 1.0000 0.0000
vt -0.0000 0.7187 0.0000
vt 0.0000 0.2812 0.0000
vt 0.7187 1.0000 0.0000
vt -0.0000 0.7500 0.0000
vt 0.2500 1.0000 0.0000
vt -0.0000 1.0000 0.0000
vt 0.0000 -0.0000 0.0000
vt 1.0000 1.0000 0.0000
vt 0.7500 1.0000 0.0000
vt 0.0000 0.2500 0.0000
# 11 texture coords

g ground_d
f 1/1/1 2/2/1 3/3/1 
f 3/3/1 4/4/1 1/1/1 
f 5/5/1 6/6/1 7/7/1 
f 2/2/2 1/1/2 6/6/2 
f 6/6/2 5/5/2 2/2/2 
f 8/8/1 9/9/1 10/10/1 
f 10/10/1 11/11/1 8/8/1 
f 10/10/3 4/4/3 3/3/3 
f 3/3/3 11/11/3 10/10/3 
# 9 faces

