# 3ds Max Wavefront OBJ Exporter v0.97b - (c)2007 guruware
# File Created: 10.12.2019 02:35:11

#
# object ground
#

v  0.0000 0.0000 0.0000
v  16.0000 0.0000 0.0000
v  16.0000 4.0000 0.0000
v  0.0000 4.0000 0.0000
v  16.0000 4.5000 -0.2000
v  0.0000 4.5000 -0.2000
v  16.0000 11.5000 -0.2000
v  0.0000 11.5000 -0.2000
v  16.0000 12.0000 0.0000
v  0.0000 12.0000 0.0000
v  16.0000 16.0000 0.0000
v  0.0000 16.0000 0.0000
# 12 vertices

vn 0.0000 0.0000 1.0000
vn 0.0000 0.3714 0.9285
vn 0.0000 -0.3714 0.9285
# 3 vertex normals

vt 0.0000 -0.0000 0.0000
vt 1.0000 0.0000 0.0000
vt 1.0000 0.2500 0.0000
vt 0.0000 0.2500 0.0000
vt 1.0000 0.2813 0.0000
vt 0.0000 0.2812 0.0000
vt 1.0000 0.7188 0.0000
vt -0.0000 0.7187 0.0000
vt 1.0000 0.7500 0.0000
vt -0.0000 0.7500 0.0000
vt 1.0000 1.0000 0.0000
vt -0.0000 1.0000 0.0000
# 12 texture coords

g ground
f 1/1/1 2/2/1 3/3/1 
f 3/3/1 4/4/1 1/1/1 
f 4/4/2 3/3/2 5/5/2 
f 5/5/2 6/6/2 4/4/2 
f 6/6/1 5/5/1 7/7/1 
f 7/7/1 8/8/1 6/6/1 
f 8/8/3 7/7/3 9/9/3 
f 9/9/3 10/10/3 8/8/3 
f 10/10/1 9/9/1 11/11/1 
f 11/11/1 12/12/1 10/10/1 
# 10 faces

