# 3ds Max Wavefront OBJ Exporter v0.97b - (c)2007 guruware
# File Created: 10.12.2019 07:51:49

#
# object Box016
#

#
# object Box015
#

#
# object Box014
#

#
# object Box013
#

#
# object Box012
#

#
# object Box011
#

#
# object Box010
#

#
# object Box009
#

#
# object Box008
#

#
# object Box007
#

#
# object Box006
#

#
# object Box005
#

#
# object Box004
#

#
# object Box003
#

#
# object Box002
#

#
# object Box001
#

#
# object RailDir1
#

#
# object RailDir2
#

#
# object Box017
#

#
# object Box018
#

#
# object Box019
#

#
# object Box020
#

#
# object Box021
#

#
# object Box022
#

v  9.1563 15.3176 -0.1000
v  9.4473 15.6086 -0.1000
v  9.0558 16.0000 -0.1000
v  8.4740 16.0000 -0.1000
v  9.1563 15.3176 -0.2000
v  9.4473 15.6086 -0.2000
v  9.0558 16.0000 -0.2000
v  8.4740 16.0000 -0.2000
# 8 vertices

vn 0.0000 -0.0000 1.0000
vn -0.0000 -0.0000 1.0000
vn 0.7071 -0.7071 0.0000
vn 0.7071 0.7071 0.0000
vn -0.7071 -0.7071 0.0000
# 5 vertex normals

vt 0.0200 0.9783 0.0000
vt 0.0200 0.8200 0.0000
vt 0.2244 0.8200 0.0000
vt 0.3763 0.9782 0.0000
vt 0.0000 0.9783 0.0000
vt 0.0000 0.8200 0.0000
vt 0.2244 0.8000 0.0000
vt 0.0200 0.8000 0.0000
vt 0.0200 1.0000 0.0000
vt 0.3763 1.0000 0.0000
# 10 texture coords

g Box022
f 1/1/1 2/2/1 3/3/2 
f 3/3/2 4/4/2 1/1/1 
f 5/5/3 6/6/3 2/2/3 
f 2/2/3 1/1/3 5/5/3 
f 7/7/4 3/3/4 2/2/4 
f 2/2/4 6/8/4 7/7/4 
f 5/9/5 1/1/5 4/4/5 
f 4/4/5 8/10/5 5/9/5 
# 8 faces

#
# object Box023
#

v  8.4291 14.5904 -0.1000
v  8.7200 14.8813 -0.1000
v  7.6013 16.0000 -0.1000
v  7.0195 16.0000 -0.1000
v  8.4291 14.5904 -0.2000
v  8.7200 14.8813 -0.2000
v  7.6013 16.0000 -0.2000
v  7.0195 16.0000 -0.2000
# 8 vertices

vn 0.0000 0.0000 1.0000
vn 0.7071 -0.7071 0.0000
vn 0.7071 0.7071 0.0000
vn -0.7071 -0.7071 0.0000
# 4 vertex normals

vt 0.0200 0.9783 0.0000
vt 0.0200 0.8200 0.0000
vt 0.6041 0.8200 0.0000
vt 0.7560 0.9782 0.0000
vt 0.0000 0.9783 0.0000
vt 0.0000 0.8200 0.0000
vt 0.6041 0.8000 0.0000
vt 0.0200 0.8000 0.0000
vt 0.0200 1.0000 0.0000
vt 0.7560 1.0000 0.0000
# 10 texture coords

g Box023
f 9/11/6 10/12/6 11/13/6 
f 11/13/6 12/14/6 9/11/6 
f 13/15/7 14/16/7 10/12/7 
f 10/12/7 9/11/7 13/15/7 
f 15/17/8 11/13/8 10/12/8 
f 10/12/8 14/18/8 15/17/8 
f 13/19/9 9/11/9 12/14/9 
f 12/14/9 16/20/9 13/19/9 
# 8 faces

#
# object Box024
#

v  7.7018 13.8631 -0.1000
v  7.9927 14.1540 -0.1000
v  6.1543 15.9926 -0.1000
v  5.8633 15.7017 -0.1000
v  7.7018 13.8631 -0.2000
v  7.9927 14.1540 -0.2000
v  6.1543 15.9926 -0.2000
v  5.8633 15.7017 -0.2000
# 8 vertices

vn 0.0000 0.0000 1.0000
vn 0.7071 -0.7071 0.0000
vn 0.7071 0.7071 0.0000
vn -0.7071 0.7071 0.0000
vn -0.7071 -0.7071 0.0000
# 5 vertex normals

vt 0.0200 0.9783 0.0000
vt 0.0200 0.8200 0.0000
vt 0.9800 0.8200 0.0000
vt 0.9800 0.9782 0.0000
vt 0.0000 0.9783 0.0000
vt 0.0000 0.8200 0.0000
vt 0.0200 0.8000 0.0000
vt 0.9800 0.8000 0.0000
vt 1.0000 0.8200 0.0000
vt 1.0000 0.9781 0.0000
vt 0.9800 1.0000 0.0000
vt 0.0200 1.0000 0.0000
# 12 texture coords

g Box024
f 17/21/10 18/22/10 19/23/10 
f 19/23/10 20/24/10 17/21/10 
f 21/25/11 22/26/11 18/22/11 
f 18/22/11 17/21/11 21/25/11 
f 22/27/12 23/28/12 19/23/12 
f 19/23/12 18/22/12 22/27/12 
f 23/29/13 24/30/13 20/24/13 
f 20/24/13 19/23/13 23/29/13 
f 24/31/14 21/32/14 17/21/14 
f 17/21/14 20/24/14 24/31/14 
# 10 faces

#
# object Box025
#

v  6.9745 13.1359 -0.1000
v  7.2654 13.4268 -0.1000
v  5.4270 15.2653 -0.1000
v  5.1360 14.9744 -0.1000
v  6.9745 13.1359 -0.2000
v  7.2654 13.4268 -0.2000
v  5.4270 15.2653 -0.2000
v  5.1360 14.9744 -0.2000
# 8 vertices

vn 0.0000 0.0000 1.0000
vn 0.7071 -0.7071 0.0000
vn 0.7071 0.7071 0.0000
vn -0.7071 0.7071 0.0000
vn -0.7071 -0.7071 0.0000
# 5 vertex normals

vt 0.0200 0.9783 0.0000
vt 0.0200 0.8200 0.0000
vt 0.9800 0.8200 0.0000
vt 0.9800 0.9782 0.0000
vt 0.0000 0.9783 0.0000
vt 0.0000 0.8200 0.0000
vt 0.0200 0.8000 0.0000
vt 0.9800 0.8000 0.0000
vt 1.0000 0.8200 0.0000
vt 1.0000 0.9781 0.0000
vt 0.9800 1.0000 0.0000
vt 0.0200 1.0000 0.0000
# 12 texture coords

g Box025
f 25/33/15 26/34/15 27/35/15 
f 27/35/15 28/36/15 25/33/15 
f 29/37/16 30/38/16 26/34/16 
f 26/34/16 25/33/16 29/37/16 
f 30/39/17 31/40/17 27/35/17 
f 27/35/17 26/34/17 30/39/17 
f 31/41/18 32/42/18 28/36/18 
f 28/36/18 27/35/18 31/41/18 
f 32/43/19 29/44/19 25/33/19 
f 25/33/19 28/36/19 32/43/19 
# 10 faces

#
# object Box026
#

v  6.2472 12.4086 -0.1000
v  6.5381 12.6995 -0.1000
v  4.6997 14.5381 -0.1000
v  4.4087 14.2472 -0.1000
v  6.2472 12.4086 -0.2000
v  6.5381 12.6995 -0.2000
v  4.6997 14.5381 -0.2000
v  4.4087 14.2472 -0.2000
# 8 vertices

vn 0.0000 0.0000 1.0000
vn 0.7071 -0.7071 0.0000
vn 0.7071 0.7071 0.0000
vn -0.7071 0.7071 0.0000
vn -0.7071 -0.7071 0.0000
# 5 vertex normals

vt 0.0200 0.9783 0.0000
vt 0.0200 0.8200 0.0000
vt 0.9800 0.8200 0.0000
vt 0.9800 0.9782 0.0000
vt 0.0000 0.9783 0.0000
vt 0.0000 0.8200 0.0000
vt 0.0200 0.8000 0.0000
vt 0.9800 0.8000 0.0000
vt 1.0000 0.8200 0.0000
vt 1.0000 0.9781 0.0000
vt 0.9800 1.0000 0.0000
vt 0.0200 1.0000 0.0000
# 12 texture coords

g Box026
f 33/45/20 34/46/20 35/47/20 
f 35/47/20 36/48/20 33/45/20 
f 37/49/21 38/50/21 34/46/21 
f 34/46/21 33/45/21 37/49/21 
f 38/51/22 39/52/22 35/47/22 
f 35/47/22 34/46/22 38/51/22 
f 39/53/23 40/54/23 36/48/23 
f 36/48/23 35/47/23 39/53/23 
f 40/55/24 37/56/24 33/45/24 
f 33/45/24 36/48/24 40/55/24 
# 10 faces

#
# object Box027
#

v  5.5199 11.6814 -0.1000
v  5.8108 11.9723 -0.1000
v  3.9724 13.8108 -0.1000
v  3.6815 13.5199 -0.1000
v  5.5199 11.6814 -0.2000
v  5.8108 11.9723 -0.2000
v  3.9724 13.8108 -0.2000
v  3.6815 13.5199 -0.2000
# 8 vertices

vn 0.0000 0.0000 1.0000
vn 0.7071 -0.7071 0.0000
vn 0.7071 0.7071 0.0000
vn -0.7071 0.7071 0.0000
vn -0.7071 -0.7071 0.0000
# 5 vertex normals

vt 0.0200 0.9783 0.0000
vt 0.0200 0.8200 0.0000
vt 0.9800 0.8200 0.0000
vt 0.9800 0.9782 0.0000
vt 0.0000 0.9783 0.0000
vt 0.0000 0.8200 0.0000
vt 0.0200 0.8000 0.0000
vt 0.9800 0.8000 0.0000
vt 1.0000 0.8200 0.0000
vt 1.0000 0.9781 0.0000
vt 0.9800 1.0000 0.0000
vt 0.0200 1.0000 0.0000
# 12 texture coords

g Box027
f 41/57/25 42/58/25 43/59/25 
f 43/59/25 44/60/25 41/57/25 
f 45/61/26 46/62/26 42/58/26 
f 42/58/26 41/57/26 45/61/26 
f 46/63/27 47/64/27 43/59/27 
f 43/59/27 42/58/27 46/63/27 
f 47/65/28 48/66/28 44/60/28 
f 44/60/28 43/59/28 47/65/28 
f 48/67/29 45/68/29 41/57/29 
f 41/57/29 44/60/29 48/67/29 
# 10 faces

#
# object Box028
#

v  5.0835 11.2450 -0.2000
v  3.2451 13.0836 -0.2000
v  3.2451 13.0836 -0.1000
v  5.0835 11.2450 -0.1000
v  3.0803 12.9197 -0.2000
v  3.0803 12.9197 -0.1000
v  4.9187 11.0813 -0.1000
v  4.9187 11.0813 -0.2000
# 8 vertices

vn 0.7071 0.7071 0.0000
vn -0.7052 0.7090 0.0000
vn 0.0000 0.0000 1.0000
vn 0.7050 -0.7092 0.0000
# 4 vertex normals

vt 0.0200 0.8000 0.0000
vt 0.9800 0.8000 0.0000
vt 0.9800 0.8200 0.0000
vt 0.0200 0.8200 0.0000
vt 1.0000 0.9131 0.0000
vt 0.9800 0.9131 0.0000
vt 1.0000 0.8200 0.0000
vt 0.0200 0.9058 0.0000
vt 0.0000 0.8200 0.0000
vt 0.0000 0.9058 0.0000
# 10 texture coords

g Box028
f 49/69/30 50/70/30 51/71/30 
f 51/71/30 52/72/30 49/69/30 
f 53/73/31 54/74/31 51/71/31 
f 51/71/31 50/75/31 53/73/31 
f 52/72/32 51/71/32 54/74/32 
f 54/74/32 55/76/32 52/72/32 
f 49/77/33 52/72/33 55/76/33 
f 55/76/33 56/78/33 49/77/33 
# 8 faces

#
# object Box029
#

#
# object Box030
#

#
# object Box031
#

#
# object Box032
#

#
# object RailDir003
#

v  6.0340 15.0946 0.0000
v  6.9395 16.0000 0.0000
v  6.7981 16.0000 0.0000
v  5.9633 15.1653 0.0000
v  6.9395 16.0000 -0.1000
v  6.0340 15.0946 -0.1000
v  4.5088 13.7108 -0.1000
v  4.5088 13.7108 0.0000
v  5.9633 15.1653 -0.1000
v  4.5795 13.6401 0.0000
v  3.7815 12.9835 0.0000
v  3.8522 12.9128 0.0000
v  4.5795 13.6401 -0.1000
v  3.8522 12.9128 -0.1000
v  3.3958 12.6042 -0.1000
v  3.3958 12.6042 0.0000
v  3.7815 12.9835 -0.1000
v  3.4665 12.5335 0.0000
v  3.4665 12.5335 -0.1000
v  6.7981 16.0000 -0.1000
# 20 vertices

vn 0.0000 -0.0000 1.0000
vn -0.0000 -0.0000 1.0000
vn 0.7071 -0.7071 0.0000
vn -0.7071 0.7071 0.0000
vn 0.0000 0.0000 1.0000
vn 0.7042 -0.7100 0.0000
vn -0.7013 0.7129 0.0000
vn -0.7042 0.7100 0.0000
vn 0.7013 -0.7129 0.0000
# 9 vertex normals

vt 0.0200 0.0800 0.0000
vt 0.3188 0.0800 0.0000
vt 0.2955 0.1000 0.0000
vt 0.0200 0.1000 0.0000
vt 0.3188 0.0600 0.0000
vt 0.0200 0.0600 0.0000
vt 0.5000 0.1200 0.0000
vt 0.5000 0.1000 0.0000
vt 0.9800 0.1000 0.0000
vt 0.9800 0.1200 0.0000
vt 0.5000 0.0800 0.0000
vt 0.2600 0.1000 0.0000
vt 0.2600 0.0800 0.0000
vt 0.5000 0.0600 0.0000
vt 0.2600 0.0600 0.0000
vt 0.1300 0.1200 0.0000
vt 0.1300 0.1000 0.0000
vt 0.2600 0.1200 0.0000
vt 0.9800 0.0800 0.0000
vt 0.9800 0.0600 0.0000
vt 0.1304 0.0800 0.0000
vt 0.1304 0.0600 0.0000
vt 0.0200 0.1200 0.0000
vt 0.2955 0.1200 0.0000
# 24 texture coords

g RailDir003
f 57/79/34 58/80/34 59/81/34 
f 59/81/34 60/82/35 57/79/34 
f 61/83/36 58/80/36 57/79/36 
f 57/79/36 62/84/36 61/83/36 
f 63/85/37 64/86/37 60/87/37 
f 60/87/37 65/88/37 63/85/37 
f 66/89/34 64/86/34 67/90/38 
f 67/90/38 68/91/34 66/89/34 
f 69/92/36 66/89/36 68/91/39 
f 68/91/39 70/93/39 69/92/36 
f 71/94/40 72/95/40 67/90/41 
f 67/90/41 73/96/41 71/94/40 
f 73/96/41 67/90/41 64/86/37 
f 64/86/37 63/85/37 73/96/41 
f 57/97/34 60/87/35 64/86/34 
f 64/86/34 66/89/34 57/97/34 
f 62/98/36 57/97/36 66/89/36 
f 66/89/36 69/92/36 62/98/36 
f 68/91/34 67/90/38 72/95/34 
f 72/95/34 74/99/34 68/91/34 
f 70/93/39 68/91/39 74/99/42 
f 74/99/42 75/100/42 70/93/39 
f 65/101/37 60/82/37 59/81/37 
f 59/81/37 76/102/37 65/101/37 
# 24 faces

#
# object RailDir004
#

v  7.1654 13.9632 0.0000
v  9.2023 16.0000 0.0000
v  9.0609 16.0000 0.0000
v  7.0947 14.0339 0.0000
v  9.2023 16.0000 -0.1000
v  7.1654 13.9632 -0.1000
v  5.6401 12.5794 -0.1000
v  5.6401 12.5794 0.0000
v  7.0947 14.0339 -0.1000
v  5.7108 12.5087 0.0000
v  4.9128 11.8521 0.0000
v  4.9835 11.7814 0.0000
v  5.7108 12.5087 -0.1000
v  4.9835 11.7814 -0.1000
v  4.5270 11.4730 -0.1000
v  4.5270 11.4730 0.0000
v  4.9128 11.8521 -0.1000
v  4.5977 11.4023 0.0000
v  4.5977 11.4023 -0.1000
v  9.0609 16.0000 -0.1000
# 20 vertices

vn 0.0000 -0.0000 1.0000
vn -0.0000 0.0000 1.0000
vn 0.0000 0.0000 1.0000
vn 0.7071 -0.7071 0.0000
vn -0.7071 0.7071 0.0000
vn 0.7040 -0.7102 0.0000
vn -0.7009 0.7133 0.0000
vn -0.7040 0.7102 0.0000
vn 0.7009 -0.7133 0.0000
# 9 vertex normals

vt 0.0200 0.0800 0.0000
vt 0.6922 0.0800 0.0000
vt 0.6688 0.1000 0.0000
vt 0.0200 0.1000 0.0000
vt 0.6922 0.0600 0.0000
vt 0.0200 0.0600 0.0000
vt 0.5000 0.1200 0.0000
vt 0.5000 0.1000 0.0000
vt 0.9800 0.1000 0.0000
vt 0.9800 0.1200 0.0000
vt 0.5000 0.0800 0.0000
vt 0.2600 0.1000 0.0000
vt 0.2600 0.0800 0.0000
vt 0.5000 0.0600 0.0000
vt 0.2600 0.0600 0.0000
vt 0.1370 0.1200 0.0000
vt 0.1370 0.1000 0.0000
vt 0.2600 0.1200 0.0000
vt 0.9800 0.0800 0.0000
vt 0.9800 0.0600 0.0000
vt 0.1374 0.0800 0.0000
vt 0.1374 0.0600 0.0000
vt 0.0200 0.1200 0.0000
vt 0.6688 0.1200 0.0000
# 24 texture coords

g RailDir004
f 77/103/43 78/104/44 79/105/44 
f 79/105/44 80/106/45 77/103/43 
f 81/107/46 78/104/46 77/103/46 
f 77/103/46 82/108/46 81/107/46 
f 83/109/47 84/110/47 80/111/47 
f 80/111/47 85/112/47 83/109/47 
f 86/113/43 84/110/43 87/114/45 
f 87/114/45 88/115/45 86/113/43 
f 89/116/46 86/113/46 88/115/48 
f 88/115/48 90/117/48 89/116/46 
f 91/118/49 92/119/49 87/114/50 
f 87/114/50 93/120/50 91/118/49 
f 93/120/50 87/114/50 84/110/47 
f 84/110/47 83/109/47 93/120/50 
f 77/121/43 80/111/45 84/110/43 
f 84/110/43 86/113/43 77/121/43 
f 82/122/46 77/121/46 86/113/46 
f 86/113/46 89/116/46 82/122/46 
f 88/115/45 87/114/45 92/119/44 
f 92/119/44 94/123/44 88/115/45 
f 90/117/48 88/115/48 94/123/51 
f 94/123/51 95/124/51 90/117/48 
f 85/125/47 80/106/47 79/105/47 
f 79/105/47 96/126/47 85/125/47 
# 24 faces

