# 3ds Max Wavefront OBJ Exporter v0.97b - (c)2007 guruware
# File Created: 10.12.2019 07:54:21

#
# object RailDir005
#

#
# object RailDir006
#

v  0.6323 7.4158 -0.1000
v  0.5889 7.3257 -0.1000
v  0.5889 7.3257 -0.0000
v  0.6323 7.4158 -0.0000
v  0.0000 7.5822 -0.1000
v  0.0000 7.5822 -0.0000
v  0.0000 7.6912 -0.0000
v  0.0000 7.6912 -0.1000
# 8 vertices

vn 0.9011 -0.4335 -0.0000
vn -0.3993 -0.9168 -0.0000
vn 0.0000 -0.0000 1.0000
vn -0.0000 -0.0000 1.0000
vn 0.3993 0.9168 0.0000
# 5 vertex normals

vt 1.0000 0.1400 0.0000
vt 1.0000 0.1600 0.0000
vt 0.9800 0.1600 0.0000
vt 0.9800 0.1400 0.0000
vt 0.8378 0.1800 0.0000
vt 0.8378 0.1600 0.0000
vt 0.9800 0.1800 0.0000
vt 0.8284 0.1400 0.0000
vt 0.9800 0.1200 0.0000
vt 0.8284 0.1200 0.0000
# 10 texture coords

g RailDir006
f 3/3/1 2/2/1 1/1/1 
f 1/1/1 4/4/1 3/3/1 
f 3/3/2 6/6/2 5/5/2 
f 5/5/2 2/7/2 3/3/2 
f 6/6/3 3/3/4 4/4/3 
f 4/4/3 7/8/3 6/6/3 
f 7/8/5 4/4/5 1/9/5 
f 1/9/5 8/10/5 7/8/5 
# 8 faces

#
# object Box033
#

v  0.5214 7.9643 -0.1000
v  -0.0000 6.8149 -0.1000
v  0.0000 7.8843 -0.1000
v  0.1085 8.1441 -0.1000
v  0.1085 8.1441 -0.2000
v  0.5214 7.9643 -0.2000
v  -0.0000 6.8149 -0.2000
v  0.0000 7.8843 -0.2000
# 8 vertices

vn -0.0000 -0.0000 1.0000
vn 0.3993 0.9168 0.0000
vn 0.9107 -0.4131 -0.0000
vn -0.9227 0.3855 0.0000
# 4 vertex normals

vt 0.0200 0.8200 0.0000
vt 0.4860 0.8200 0.0000
vt 0.1240 0.9783 0.0000
vt 0.0200 0.9783 0.0000
vt 0.0000 0.9783 0.0000
vt 0.0000 0.8200 0.0000
vt 0.4860 0.8000 0.0000
vt 0.0200 0.8000 0.0000
vt 0.0200 1.0000 0.0000
vt 0.1240 1.0000 0.0000
# 10 texture coords

g Box033
f 11/13/6 10/12/6 9/11/6 
f 9/11/6 12/14/6 11/13/6 
f 9/11/7 14/16/7 13/15/7 
f 13/15/7 12/14/7 9/11/7 
f 9/11/8 10/12/8 15/17/8 
f 15/17/8 14/18/8 9/11/8 
f 11/13/9 12/14/9 13/19/9 
f 13/19/9 16/20/9 11/13/9 
# 8 faces

#
# object Box034
#

#
# object Box035
#

#
# object Box036
#

#
# object Box037
#

#
# object Box038
#

#
# object Box039
#

#
# object Box040
#

#
# object Box041
#

#
# object Box042
#

#
# object Box043
#

#
# object Box044
#

#
# object Box045
#

#
# object Box046
#

#
# object Box047
#

#
# object Box048
#

#
# object Box049
#

v  1.1302 7.6714 -0.1000
v  1.5287 7.4609 -0.1000
v  0.2796 5.1806 -0.1000
v  -0.0000 5.3283 -0.1000
v  -0.0000 5.4520 -0.1000
v  1.1302 7.6714 -0.2000
v  1.5287 7.4609 -0.2000
v  0.2796 5.1806 -0.2000
v  -0.0000 5.3283 -0.2000
v  -0.0000 5.4520 -0.2000
# 10 vertices

vn -0.0000 -0.0000 1.0000
vn 0.4671 0.8842 0.0000
vn 0.8770 -0.4804 -0.0000
vn -0.4671 -0.8842 -0.0000
vn -0.8911 0.4538 0.0000
# 5 vertex normals

vt 0.0200 0.9783 0.0000
vt 0.0200 0.8200 0.0000
vt 0.9800 0.8200 0.0000
vt 0.9800 0.9543 0.0000
vt 0.9396 0.9782 0.0000
vt 0.0000 0.9783 0.0000
vt 0.0000 0.8200 0.0000
vt 0.0200 0.8000 0.0000
vt 0.9800 0.8000 0.0000
vt 1.0000 0.9543 0.0000
vt 1.0000 0.8200 0.0000
vt 0.0200 1.0000 0.0000
vt 0.9396 1.0000 0.0000
# 13 texture coords

g Box049
f 19/23/10 18/22/10 17/21/10 
f 20/24/10 19/23/10 17/21/10 
f 21/25/10 20/24/10 17/21/10 
f 18/22/11 23/27/11 22/26/11 
f 22/26/11 17/21/11 18/22/11 
f 19/23/12 24/29/12 23/28/12 
f 23/28/12 18/22/12 19/23/12 
f 19/23/13 20/24/13 25/30/13 
f 25/30/13 24/31/13 19/23/13 
f 21/25/14 17/21/14 22/32/14 
f 22/32/14 26/33/14 21/25/14 
# 11 faces

#
# object Box050
#

#
# object Box051
#

#
# object Box052
#

#
# object Box053
#

#
# object Box054
#

#
# object Box055
#

#
# object Box056
#

#
# object Box057
#

#
# object Box058
#

#
# object Box059
#

#
# object Box060
#

#
# object Box061
#

v  4.9187 4.9187 -0.1000
v  3.0803 3.0803 -0.1000
v  2.9653 3.1947 -0.1000
v  4.7795 5.0572 -0.1000
v  4.9187 4.9187 -0.2000
v  4.7795 5.0572 -0.2000
v  2.9653 3.1947 -0.2000
v  3.0803 3.0803 -0.2000
# 8 vertices

vn -0.0000 -0.0000 1.0000
vn 0.7050 0.7092 0.0000
vn -0.7163 0.6978 0.0000
vn -0.7052 -0.7090 -0.0000
# 4 vertex normals

vt 0.0200 0.9058 0.0000
vt 0.9800 0.9131 0.0000
vt 0.9800 0.9782 0.0000
vt 0.0200 0.9783 0.0000
vt 0.0000 0.9058 0.0000
vt 0.0000 0.9783 0.0000
vt 0.9800 1.0000 0.0000
vt 0.0200 1.0000 0.0000
vt 1.0000 0.9781 0.0000
vt 1.0000 0.9131 0.0000
# 10 texture coords

g Box061
f 29/36/15 28/35/15 27/34/15 
f 27/34/15 30/37/15 29/36/15 
f 30/37/16 27/34/16 31/38/16 
f 31/38/16 32/39/16 30/37/16 
f 30/37/17 32/41/17 33/40/17 
f 33/40/17 29/36/17 30/37/17 
f 28/35/18 29/36/18 33/42/18 
f 33/42/18 34/43/18 28/35/18 
# 8 faces

#
# object Box062
#

v  3.9436 5.8122 -0.1000
v  4.2846 5.5179 -0.1000
v  2.5565 3.5753 -0.1000
v  2.2747 3.8185 -0.1000
v  3.9436 5.8122 -0.2000
v  4.2846 5.5179 -0.2000
v  2.5565 3.5753 -0.2000
v  2.2747 3.8185 -0.2000
# 8 vertices

vn -0.0000 -0.0000 1.0000
vn 0.6534 0.7571 0.0000
vn 0.7471 -0.6647 -0.0000
vn -0.6533 -0.7571 -0.0000
vn -0.7668 0.6419 0.0000
# 5 vertex normals

vt 0.0200 0.9783 0.0000
vt 0.0200 0.8200 0.0000
vt 0.9800 0.8200 0.0000
vt 0.9800 0.9782 0.0000
vt 0.0000 0.9783 0.0000
vt 0.0000 0.8200 0.0000
vt 0.0200 0.8000 0.0000
vt 0.9800 0.8000 0.0000
vt 1.0000 0.8200 0.0000
vt 1.0000 0.9781 0.0000
vt 0.9800 1.0000 0.0000
vt 0.0200 1.0000 0.0000
# 12 texture coords

g Box062
f 37/46/19 36/45/19 35/44/19 
f 35/44/19 38/47/19 37/46/19 
f 36/45/20 40/49/20 39/48/20 
f 39/48/20 35/44/20 36/45/20 
f 37/46/21 41/51/21 40/50/21 
f 40/50/21 36/45/21 37/46/21 
f 38/47/22 42/53/22 41/52/22 
f 41/52/22 37/46/22 38/47/22 
f 35/44/23 39/55/23 42/54/23 
f 42/54/23 38/47/23 35/44/23 
# 10 faces

#
# object Box063
#

v  3.0540 6.5016 -0.1000
v  3.4161 6.2339 -0.1000
v  1.8389 4.1669 -0.1000
v  1.5398 4.3880 -0.1000
v  3.0540 6.5016 -0.2000
v  3.4161 6.2339 -0.2000
v  1.8389 4.1669 -0.2000
v  1.5398 4.3880 -0.2000
# 8 vertices

vn -0.0000 -0.0000 1.0000
vn 0.5946 0.8040 0.0000
vn 0.7950 -0.6066 -0.0000
vn -0.5946 -0.8040 -0.0000
vn -0.8129 0.5824 0.0000
# 5 vertex normals

vt 0.0200 0.9783 0.0000
vt 0.0200 0.8200 0.0000
vt 0.9800 0.8200 0.0000
vt 0.9800 0.9782 0.0000
vt 0.0000 0.9783 0.0000
vt 0.0000 0.8200 0.0000
vt 0.0200 0.8000 0.0000
vt 0.9800 0.8000 0.0000
vt 1.0000 0.8200 0.0000
vt 1.0000 0.9781 0.0000
vt 0.9800 1.0000 0.0000
vt 0.0200 1.0000 0.0000
# 12 texture coords

g Box063
f 45/58/24 44/57/24 43/56/24 
f 43/56/24 46/59/24 45/58/24 
f 44/57/25 48/61/25 47/60/25 
f 47/60/25 43/56/25 44/57/25 
f 45/58/26 49/63/26 48/62/26 
f 48/62/26 44/57/26 45/58/26 
f 46/59/27 50/65/27 49/64/27 
f 49/64/27 45/58/27 46/59/27 
f 43/56/28 47/67/28 50/66/28 
f 50/66/28 46/59/28 43/56/28 
# 10 faces

#
# object Box064
#

v  2.1146 7.1225 -0.1000
v  2.4961 6.8826 -0.1000
v  1.0788 4.7028 -0.1000
v  0.7636 4.9010 -0.1000
v  2.1146 7.1225 -0.2000
v  2.4961 6.8826 -0.2000
v  1.0788 4.7028 -0.2000
v  0.7636 4.9010 -0.2000
# 8 vertices

vn -0.0000 -0.0000 1.0000
vn 0.5324 0.8465 0.0000
vn 0.8384 -0.5451 -0.0000
vn -0.5324 -0.8465 -0.0000
vn -0.8544 0.5196 0.0000
# 5 vertex normals

vt 0.0200 0.9783 0.0000
vt 0.0200 0.8200 0.0000
vt 0.9800 0.8200 0.0000
vt 0.9800 0.9782 0.0000
vt 0.0000 0.9783 0.0000
vt 0.0000 0.8200 0.0000
vt 0.0200 0.8000 0.0000
vt 0.9800 0.8000 0.0000
vt 1.0000 0.8200 0.0000
vt 1.0000 0.9781 0.0000
vt 0.9800 1.0000 0.0000
vt 0.0200 1.0000 0.0000
# 12 texture coords

g Box064
f 53/70/29 52/69/29 51/68/29 
f 51/68/29 54/71/29 53/70/29 
f 52/69/30 56/73/30 55/72/30 
f 55/72/30 51/68/30 52/69/30 
f 53/70/31 57/75/31 56/74/31 
f 56/74/31 52/69/31 53/70/31 
f 54/71/32 58/77/32 57/76/32 
f 57/76/32 53/70/32 54/71/32 
f 51/68/33 55/79/33 58/78/33 
f 58/78/33 54/71/33 51/68/33 
# 10 faces

#
# object RailDir007
#

v  3.4665 3.4665 -0.0000
v  3.3958 3.3958 -0.0000
v  3.0696 3.7167 -0.0000
v  3.1378 3.7899 -0.0000
v  3.4665 3.4665 -0.1000
v  3.1378 3.7899 -0.1000
v  2.3398 4.3466 -0.1000
v  2.3398 4.3466 -0.0000
v  3.0696 3.7167 -0.1000
v  1.6213 5.0022 -0.0000
v  1.5649 4.9196 -0.0000
v  0.7483 5.4332 -0.0000
v  0.7983 5.5198 -0.0000
v  1.6213 5.0022 -0.1000
v  0.7983 5.5198 -0.1000
v  0.0000 5.8286 -0.1000
v  0.0000 5.8286 -0.0000
v  0.7483 5.4332 -0.1000
v  1.5649 4.9196 -0.1000
v  2.4022 4.4247 -0.0000
v  2.4022 4.4247 -0.1000
v  0.0000 5.9416 -0.0000
v  0.0000 5.9416 -0.1000
v  3.3958 3.3958 -0.1000
# 24 vertices

vn 0.0000 -0.0000 1.0000
vn 0.7013 0.7129 0.0000
vn 0.6777 0.7354 0.0000
vn -0.6244 -0.7811 -0.0000
vn -0.6777 -0.7354 -0.0000
vn 0.5639 0.8259 0.0000
vn 0.5001 0.8659 0.0000
vn -0.4672 -0.8842 -0.0000
vn -0.5001 -0.8659 -0.0000
vn -0.5639 -0.8259 -0.0000
vn 0.6244 0.7811 0.0000
vn -0.0000 -0.0000 1.0000
vn 0.4672 0.8842 0.0000
vn -0.7013 -0.7129 -0.0000
# 14 vertex normals

vt 0.1304 0.0800 0.0000
vt 0.1300 0.1000 0.0000
vt 0.0200 0.1000 0.0000
vt 0.0200 0.0800 0.0000
vt 0.1304 0.0600 0.0000
vt 0.0200 0.0600 0.0000
vt 0.7400 0.0600 0.0000
vt 0.7400 0.0400 0.0000
vt 0.9800 0.0400 0.0000
vt 0.9800 0.0600 0.0000
vt 0.5000 0.0200 0.0000
vt 0.5000 0.0400 0.0000
vt 0.2600 0.0400 0.0000
vt 0.2600 0.0200 0.0000
vt 0.5000 0.0000 0.0000
vt 0.2600 0.0000 0.0000
vt 0.0495 0.0600 0.0000
vt 0.0495 0.0400 0.0000
vt 0.2600 0.0600 0.0000
vt 0.5000 0.0600 0.0000
vt 0.7400 0.0200 0.0000
vt 0.7400 0.0000 0.0000
vt 0.9800 0.0200 0.0000
vt 0.9800 0.0000 0.0000
vt 0.0371 0.0200 0.0000
vt 0.0371 0.0000 0.0000
vt 0.0200 0.1200 0.0000
vt 0.1300 0.1200 0.0000
# 28 texture coords

g RailDir007
f 61/82/34 60/81/34 59/80/34 
f 59/80/34 62/83/34 61/82/34 
f 62/83/36 59/80/35 63/84/35 
f 63/84/35 64/85/36 62/83/36 
f 61/88/38 66/87/37 65/86/37 
f 65/86/37 67/89/38 61/88/38 
f 70/92/34 69/91/34 68/90/34 
f 68/90/34 71/93/34 70/92/34 
f 71/93/40 68/90/39 72/94/39 
f 72/94/39 73/95/40 71/93/40 
f 70/92/42 75/97/41 74/96/41 
f 74/96/41 76/98/42 70/92/42 
f 69/91/43 70/92/42 76/98/42 
f 76/98/42 77/99/43 69/91/43 
f 69/91/34 66/87/34 78/100/34 
f 78/100/34 68/90/34 69/91/34 
f 68/90/39 78/100/44 79/101/44 
f 79/101/44 72/94/39 68/90/39 
f 66/87/37 69/91/43 77/99/43 
f 77/99/43 65/86/37 66/87/37 
f 66/87/34 61/88/34 62/102/34 
f 62/102/34 78/100/34 66/87/34 
f 78/100/44 62/102/36 64/103/36 
f 64/103/36 79/101/44 78/100/44 
f 75/97/45 70/92/34 71/93/34 
f 71/93/34 80/104/45 75/97/45 
f 80/104/46 71/93/40 73/95/40 
f 73/95/40 81/105/46 80/104/46 
f 60/81/47 61/82/38 67/106/38 
f 67/106/38 82/107/47 60/81/47 
# 30 faces

#
# object RailDir008
#

v  1.5985 6.9053 -0.0000
v  1.5485 6.8187 -0.0000
v  0.5889 7.3257 -0.0000
v  0.6323 7.4158 -0.0000
v  4.5977 4.5977 -0.0000
v  4.5270 4.5270 -0.0000
v  4.1598 4.8878 -0.0000
v  4.2280 4.9610 -0.0000
v  1.5985 6.9053 -0.1000
v  0.6323 7.4158 -0.1000
v  4.5977 4.5977 -0.1000
v  4.2280 4.9610 -0.1000
v  3.3388 5.5964 -0.1000
v  3.3388 5.5964 -0.0000
v  4.1598 4.8878 -0.1000
v  0.5889 7.3257 -0.1000
v  2.5235 6.3236 -0.0000
v  2.4671 6.2410 -0.0000
v  2.5235 6.3236 -0.1000
v  1.5485 6.8187 -0.1000
v  2.4671 6.2410 -0.1000
v  3.4012 5.6745 -0.0000
v  3.4012 5.6745 -0.1000
v  4.5270 4.5270 -0.1000
# 24 vertices

vn 0.0000 -0.0000 1.0000
vn -0.0000 -0.0000 1.0000
vn 0.5001 0.8659 0.0000
vn 0.4672 0.8842 0.0000
vn 0.7009 0.7133 0.0000
vn 0.6775 0.7355 0.0000
vn -0.6244 -0.7811 -0.0000
vn -0.6775 -0.7355 -0.0000
vn -0.9011 0.4335 0.0000
vn 0.5639 0.8259 0.0000
vn -0.4672 -0.8842 -0.0000
vn -0.5001 -0.8659 -0.0000
vn -0.5639 -0.8259 -0.0000
vn 0.6244 0.7811 0.0000
vn -0.7009 -0.7133 -0.0000
# 15 vertex normals

vt 0.2600 0.0200 0.0000
vt 0.2600 0.0400 0.0000
vt 0.0200 0.0400 0.0000
vt 0.0200 0.0200 0.0000
vt 0.1374 0.0800 0.0000
vt 0.1370 0.1000 0.0000
vt 0.0200 0.1000 0.0000
vt 0.0200 0.0800 0.0000
vt 0.2600 0.0000 0.0000
vt 0.0200 0.0000 0.0000
vt 0.1374 0.0600 0.0000
vt 0.0200 0.0600 0.0000
vt 0.7400 0.0600 0.0000
vt 0.7400 0.0400 0.0000
vt 0.9800 0.0400 0.0000
vt 0.9800 0.0600 0.0000
vt 0.0000 0.0400 0.0000
vt 0.0000 0.0200 0.0000
vt 0.5000 0.0200 0.0000
vt 0.5000 0.0400 0.0000
vt 0.5000 0.0000 0.0000
vt 0.2600 0.0600 0.0000
vt 0.5000 0.0600 0.0000
vt 0.7400 0.0200 0.0000
vt 0.7400 0.0000 0.0000
vt 0.9800 0.0200 0.0000
vt 0.9800 0.0000 0.0000
vt 0.0200 0.1200 0.0000
vt 0.1370 0.1200 0.0000
# 29 texture coords

g RailDir008
f 85/110/49 84/109/48 83/108/48 
f 83/108/48 86/111/49 85/110/49 
f 89/114/49 88/113/49 87/112/49 
f 87/112/49 90/115/49 89/114/49 
f 86/111/51 83/108/50 91/116/50 
f 91/116/50 92/117/51 86/111/51 
f 90/115/53 87/112/52 93/118/52 
f 93/118/52 94/119/53 90/115/53 
f 89/122/55 96/121/54 95/120/54 
f 95/120/54 97/123/55 89/122/55 
f 86/111/56 92/125/56 98/124/56 
f 98/124/56 85/110/56 86/111/56 
f 84/109/48 100/127/48 99/126/48 
f 99/126/48 83/108/48 84/109/48 
f 83/108/50 99/126/57 101/128/57 
f 101/128/57 91/116/50 83/108/50 
f 84/109/59 85/110/58 98/119/58 
f 98/119/58 102/129/59 84/109/59 
f 100/127/60 84/109/59 102/129/59 
f 102/129/59 103/130/60 100/127/60 
f 100/127/48 96/121/48 104/131/48 
f 104/131/48 99/126/48 100/127/48 
f 99/126/57 104/131/61 105/132/61 
f 105/132/61 101/128/57 99/126/57 
f 96/121/54 100/127/60 103/130/60 
f 103/130/60 95/120/54 96/121/54 
f 96/121/48 89/122/49 90/133/49 
f 90/133/49 104/131/48 96/121/48 
f 104/131/61 90/133/53 94/134/53 
f 94/134/53 105/132/61 104/131/61 
f 88/113/62 89/114/55 97/135/55 
f 97/135/55 106/136/62 88/113/62 
# 32 faces

