# 3ds Max Wavefront OBJ Exporter v0.97b - (c)2007 guruware
# File Created: 10.12.2019 07:55:58

#
# object Box016
#

v  15.4474 10.4035 -0.2000
v  15.1063 10.2549 -0.2000
v  15.1063 10.2549 -0.1000
v  15.4474 10.4035 -0.1000
v  16.0000 8.1157 -0.2000
v  16.0000 8.1157 -0.1000
v  16.0000 9.1851 -0.1000
v  16.0000 9.1851 -0.2000
# 8 vertices

vn -0.3993 0.9168 0.0000
vn -0.9227 -0.3855 0.0000
vn 0.0000 0.0000 1.0000
vn 0.9107 0.4131 0.0000
# 4 vertex normals

vt 1.0000 0.8200 0.0000
vt 1.0000 0.9781 0.0000
vt 0.9800 0.9782 0.0000
vt 0.9800 0.8200 0.0000
vt 0.1240 1.0000 0.0000
vt 0.1240 0.9783 0.0000
vt 0.9800 1.0000 0.0000
vt 0.4860 0.8200 0.0000
vt 0.9800 0.8000 0.0000
vt 0.4860 0.8000 0.0000
# 10 texture coords

g Box016
f 1/1/1 2/2/1 3/3/1 
f 3/3/1 4/4/1 1/1/1 
f 5/5/2 6/6/2 3/3/2 
f 3/3/2 2/7/2 5/5/2 
f 7/8/3 4/4/3 3/3/3 
f 3/3/3 6/6/3 7/8/3 
f 1/9/4 4/4/4 7/8/4 
f 7/8/4 8/10/4 1/9/4 
# 8 faces

#
# object Box015
#

v  15.0543 7.4613 -0.1000
v  15.4796 7.6096 -0.1000
v  14.5867 10.0515 -0.1000
v  14.2354 9.9290 -0.1000
v  15.0543 7.4613 -0.2000
v  15.4796 7.6096 -0.2000
v  14.5867 10.0515 -0.2000
v  14.2354 9.9290 -0.2000
# 8 vertices

vn 0.0000 0.0000 1.0000
vn 0.3292 -0.9442 0.0000
vn 0.9392 0.3434 0.0000
vn -0.3292 0.9442 0.0000
vn -0.9491 -0.3150 0.0000
# 5 vertex normals

vt 0.0200 0.9783 0.0000
vt 0.0200 0.8200 0.0000
vt 0.9800 0.8200 0.0000
vt 0.9800 0.9782 0.0000
vt 0.0000 0.9783 0.0000
vt 0.0000 0.8200 0.0000
vt 0.0200 0.8000 0.0000
vt 0.9800 0.8000 0.0000
vt 1.0000 0.8200 0.0000
vt 1.0000 0.9781 0.0000
vt 0.9800 1.0000 0.0000
vt 0.0200 1.0000 0.0000
# 12 texture coords

g Box015
f 9/11/5 10/12/5 11/13/5 
f 11/13/5 12/14/5 9/11/5 
f 13/15/6 14/16/6 10/12/6 
f 10/12/6 9/11/6 13/15/6 
f 14/17/7 15/18/7 11/13/7 
f 11/13/7 10/12/7 14/17/7 
f 15/19/8 16/20/8 12/14/8 
f 12/14/8 11/13/8 15/19/8 
f 16/21/9 13/22/9 9/11/9 
f 9/11/9 12/14/9 16/21/9 
# 10 faces

#
# object Box014
#

v  13.9721 7.1469 -0.1000
v  14.4080 7.2629 -0.1000
v  13.7014 9.7651 -0.1000
v  13.3412 9.6692 -0.1000
v  13.9721 7.1469 -0.2000
v  14.4080 7.2629 -0.2000
v  13.7014 9.7651 -0.2000
v  13.3412 9.6692 -0.2000
# 8 vertices

vn 0.0000 0.0000 1.0000
vn 0.2572 -0.9664 0.0000
vn 0.9624 0.2718 0.0000
vn -0.2572 0.9664 0.0000
vn -0.9701 -0.2426 0.0000
# 5 vertex normals

vt 0.0200 0.9783 0.0000
vt 0.0200 0.8200 0.0000
vt 0.9800 0.8200 0.0000
vt 0.9800 0.9782 0.0000
vt 0.0000 0.9783 0.0000
vt 0.0000 0.8200 0.0000
vt 0.0200 0.8000 0.0000
vt 0.9800 0.8000 0.0000
vt 1.0000 0.8200 0.0000
vt 1.0000 0.9781 0.0000
vt 0.9800 1.0000 0.0000
vt 0.0200 1.0000 0.0000
# 12 texture coords

g Box014
f 17/23/10 18/24/10 19/25/10 
f 19/25/10 20/26/10 17/23/10 
f 21/27/11 22/28/11 18/24/11 
f 18/24/11 17/23/11 21/27/11 
f 22/29/12 23/30/12 19/25/12 
f 19/25/12 18/24/12 22/29/12 
f 23/31/13 24/32/13 20/26/13 
f 20/26/13 19/25/13 23/31/13 
f 24/33/14 21/34/14 17/23/14 
f 17/23/14 20/26/14 24/33/14 
# 10 faces

#
# object Box013
#

v  12.8699 6.9150 -0.1000
v  13.3127 6.9977 -0.1000
v  12.7965 9.5460 -0.1000
v  12.4307 9.4776 -0.1000
v  12.8699 6.9150 -0.2000
v  13.3127 6.9977 -0.2000
v  12.7965 9.5460 -0.2000
v  12.4307 9.4776 -0.2000
# 8 vertices

vn 0.0000 0.0000 1.0000
vn 0.1838 -0.9830 0.0000
vn 0.9801 0.1985 0.0000
vn -0.1838 0.9830 0.0000
vn -0.9856 -0.1689 0.0000
# 5 vertex normals

vt 0.0200 0.9783 0.0000
vt 0.0200 0.8200 0.0000
vt 0.9800 0.8200 0.0000
vt 0.9800 0.9782 0.0000
vt 0.0000 0.9783 0.0000
vt 0.0000 0.8200 0.0000
vt 0.0200 0.8000 0.0000
vt 0.9800 0.8000 0.0000
vt 1.0000 0.8200 0.0000
vt 1.0000 0.9781 0.0000
vt 0.9800 1.0000 0.0000
vt 0.0200 1.0000 0.0000
# 12 texture coords

g Box013
f 25/35/15 26/36/15 27/37/15 
f 27/37/15 28/38/15 25/35/15 
f 29/39/16 30/40/16 26/36/16 
f 26/36/16 25/35/16 29/39/16 
f 30/41/17 31/42/17 27/37/17 
f 27/37/17 26/36/17 30/41/17 
f 31/43/18 32/44/18 28/38/18 
f 28/38/18 27/37/18 31/43/18 
f 32/45/19 29/46/19 25/35/19 
f 25/35/19 28/38/19 32/45/19 
# 10 faces

#
# object Box012
#

v  11.7543 6.7667 -0.1000
v  12.2018 6.8159 -0.1000
v  11.8787 9.3958 -0.1000
v  11.5090 9.3551 -0.1000
v  11.7543 6.7667 -0.2000
v  12.2018 6.8159 -0.2000
v  11.8787 9.3958 -0.2000
v  11.5090 9.3551 -0.2000
# 8 vertices

vn 0.0000 0.0000 1.0000
vn 0.1093 -0.9940 0.0000
vn 0.9922 0.1243 0.0000
vn -0.1093 0.9940 0.0000
vn -0.9955 -0.0943 0.0000
# 5 vertex normals

vt 0.0200 0.9783 0.0000
vt 0.0200 0.8200 0.0000
vt 0.9800 0.8200 0.0000
vt 0.9800 0.9782 0.0000
vt 0.0000 0.9783 0.0000
vt 0.0000 0.8200 0.0000
vt 0.0200 0.8000 0.0000
vt 0.9800 0.8000 0.0000
vt 1.0000 0.8200 0.0000
vt 1.0000 0.9781 0.0000
vt 0.9800 1.0000 0.0000
vt 0.0200 1.0000 0.0000
# 12 texture coords

g Box012
f 33/47/20 34/48/20 35/49/20 
f 35/49/20 36/50/20 33/47/20 
f 37/51/21 38/52/21 34/48/21 
f 34/48/21 33/47/21 37/51/21 
f 38/53/22 39/54/22 35/49/22 
f 35/49/22 34/48/22 38/53/22 
f 39/55/23 40/56/23 36/50/23 
f 36/50/23 35/49/23 39/55/23 
f 40/57/24 37/58/24 33/47/24 
f 33/47/24 36/50/24 40/57/24 
# 10 faces

#
# object Box011
#

v  10.6299 6.7027 -0.1000
v  11.0804 6.7182 -0.1000
v  10.9522 9.3150 -0.1000
v  10.5800 9.3023 -0.1000
v  10.6299 6.7027 -0.2000
v  11.0804 6.7182 -0.2000
v  10.9522 9.3150 -0.2000
v  10.5800 9.3023 -0.2000
# 8 vertices

vn 0.0000 0.0000 1.0000
vn 0.0342 -0.9994 0.0000
vn 0.9988 0.0493 0.0000
vn -0.0342 0.9994 0.0000
vn -0.9998 -0.0192 0.0000
# 5 vertex normals

vt 0.0200 0.9783 0.0000
vt 0.0200 0.8200 0.0000
vt 0.9800 0.8200 0.0000
vt 0.9800 0.9782 0.0000
vt 0.0000 0.9783 0.0000
vt 0.0000 0.8200 0.0000
vt 0.0200 0.8000 0.0000
vt 0.9800 0.8000 0.0000
vt 1.0000 0.8200 0.0000
vt 1.0000 0.9781 0.0000
vt 0.9800 1.0000 0.0000
vt 0.0200 1.0000 0.0000
# 12 texture coords

g Box011
f 41/59/25 42/60/25 43/61/25 
f 43/61/25 44/62/25 41/59/25 
f 45/63/26 46/64/26 42/60/26 
f 42/60/26 41/59/26 45/63/26 
f 46/65/27 47/66/27 43/61/27 
f 43/61/27 42/60/27 46/65/27 
f 47/67/28 48/68/28 44/62/28 
f 44/62/28 43/61/28 47/67/28 
f 48/69/29 45/70/29 41/59/29 
f 41/59/29 44/62/29 48/69/29 
# 10 faces

#
# object Box010
#

v  9.5762 6.7000 -0.1000
v  9.9876 6.7000 -0.1000
v  9.9875 9.3000 -0.1000
v  9.5761 9.3000 -0.1000
v  9.5762 6.7000 -0.2000
v  9.9876 6.7000 -0.2000
v  9.9875 9.3000 -0.2000
v  9.5761 9.3000 -0.2000
# 8 vertices

vn 0.0000 0.0000 1.0000
vn 0.0000 -1.0000 0.0000
vn 1.0000 0.0000 0.0000
vn -0.0000 1.0000 0.0000
vn -1.0000 -0.0000 0.0000
# 5 vertex normals

vt 0.0200 0.9783 0.0000
vt 0.0200 0.8200 0.0000
vt 0.9800 0.8200 0.0000
vt 0.9800 0.9782 0.0000
vt 0.0000 0.9783 0.0000
vt 0.0000 0.8200 0.0000
vt 0.0200 0.8000 0.0000
vt 0.9800 0.8000 0.0000
vt 1.0000 0.8200 0.0000
vt 1.0000 0.9781 0.0000
vt 0.9800 1.0000 0.0000
vt 0.0200 1.0000 0.0000
# 12 texture coords

g Box010
f 49/71/30 50/72/30 51/73/30 
f 51/73/30 52/74/30 49/71/30 
f 53/75/31 54/76/31 50/72/31 
f 50/72/31 49/71/31 53/75/31 
f 54/77/32 55/78/32 51/73/32 
f 51/73/32 50/72/32 54/77/32 
f 55/79/33 56/80/33 52/74/33 
f 52/74/33 51/73/33 55/79/33 
f 56/81/34 53/82/34 49/71/34 
f 49/71/34 52/74/34 56/81/34 
# 10 faces

#
# object Box009
#

v  8.5477 6.7000 -0.1000
v  8.9591 6.7000 -0.1000
v  8.9590 9.3000 -0.1000
v  8.5476 9.3000 -0.1000
v  8.5477 6.7000 -0.2000
v  8.9591 6.7000 -0.2000
v  8.9590 9.3000 -0.2000
v  8.5476 9.3000 -0.2000
# 8 vertices

vn 0.0000 0.0000 1.0000
vn 0.0000 -1.0000 0.0000
vn 1.0000 0.0000 0.0000
vn -0.0000 1.0000 0.0000
vn -1.0000 -0.0000 0.0000
# 5 vertex normals

vt 0.0200 0.9783 0.0000
vt 0.0200 0.8200 0.0000
vt 0.9800 0.8200 0.0000
vt 0.9800 0.9782 0.0000
vt 0.0000 0.9783 0.0000
vt 0.0000 0.8200 0.0000
vt 0.0200 0.8000 0.0000
vt 0.9800 0.8000 0.0000
vt 1.0000 0.8200 0.0000
vt 1.0000 0.9781 0.0000
vt 0.9800 1.0000 0.0000
vt 0.0200 1.0000 0.0000
# 12 texture coords

g Box009
f 57/83/35 58/84/35 59/85/35 
f 59/85/35 60/86/35 57/83/35 
f 61/87/36 62/88/36 58/84/36 
f 58/84/36 57/83/36 61/87/36 
f 62/89/37 63/90/37 59/85/37 
f 59/85/37 58/84/37 62/89/37 
f 63/91/38 64/92/38 60/86/38 
f 60/86/38 59/85/38 63/91/38 
f 64/93/39 61/94/39 57/83/39 
f 57/83/39 60/86/39 64/93/39 
# 10 faces

#
# object Box008
#

#
# object Box007
#

#
# object Box006
#

#
# object Box005
#

#
# object Box004
#

#
# object Box003
#

#
# object Box002
#

#
# object Box001
#

#
# object RailDir1
#

v  10.2961 8.7500 0.0000
v  10.2961 8.8500 0.0000
v  8.2390 8.8499 0.0000
v  8.2390 8.7499 0.0000
v  13.1908 9.0681 0.0000
v  13.1688 9.1656 0.0000
v  12.2212 8.9884 0.0000
v  12.2358 8.8895 0.0000
v  10.2961 8.7500 -0.1000
v  8.2390 8.7499 -0.1000
v  13.1908 9.0681 -0.1000
v  12.2358 8.8895 -0.1000
v  15.9386 10.0260 -0.1000
v  15.8953 10.1161 -0.1000
v  15.8953 10.1161 0.0000
v  15.9386 10.0260 0.0000
v  15.0117 9.7313 -0.1000
v  15.0117 9.7313 0.0000
v  11.2632 8.8831 -0.1000
v  11.2632 8.8831 0.0000
v  12.2212 8.9884 -0.1000
v  8.0000 8.8499 -0.1000
v  8.0000 8.8499 0.0000
v  8.2390 8.8499 -0.1000
v  15.0482 9.6381 0.0000
v  15.0482 9.6381 -0.1000
v  14.1014 9.4139 -0.1000
v  14.1014 9.4139 0.0000
v  14.1308 9.3183 0.0000
v  14.1308 9.3183 -0.1000
v  13.1688 9.1656 -0.1000
v  11.2704 8.7834 0.0000
v  11.2704 8.7834 -0.1000
v  10.2961 8.8500 -0.1000
v  8.0000 8.7499 0.0000
v  8.0000 8.7499 -0.1000
# 36 vertices

vn 0.0000 0.0000 1.0000
vn -0.0000 0.0000 1.0000
vn 0.0171 -0.9999 0.0000
vn 0.0000 -1.0000 0.0000
vn 0.2207 -0.9754 0.0000
vn 0.1466 -0.9892 0.0000
vn 0.9011 0.4335 0.0000
vn -0.3645 0.9312 0.0000
vn -0.3993 0.9168 0.0000
vn -0.0718 0.9974 0.0000
vn -0.1466 0.9892 0.0000
vn -0.0000 1.0000 0.0000
vn -0.0000 -0.0000 1.0000
vn 0.3993 -0.9168 0.0000
vn 0.3645 -0.9312 0.0000
vn -0.2934 0.9560 0.0000
vn 0.2934 -0.9560 0.0000
vn -0.2207 0.9754 0.0000
vn 0.0718 -0.9974 0.0000
vn -0.0171 0.9999 0.0000
# 20 vertex normals

vt 0.5000 0.0800 0.0000
vt 0.5000 0.1000 0.0000
vt 0.0200 0.1000 0.0000
vt 0.0200 0.0800 0.0000
vt 0.2600 0.1400 0.0000
vt 0.2600 0.1600 0.0000
vt 0.0200 0.1600 0.0000
vt 0.0200 0.1400 0.0000
vt 0.5000 0.0600 0.0000
vt 0.0200 0.0600 0.0000
vt 0.2600 0.1200 0.0000
vt 0.0200 0.1200 0.0000
vt 1.0000 0.1400 0.0000
vt 1.0000 0.1600 0.0000
vt 0.9800 0.1600 0.0000
vt 0.9800 0.1400 0.0000
vt 0.7400 0.1800 0.0000
vt 0.7400 0.1600 0.0000
vt 0.9800 0.1800 0.0000
vt 0.7400 0.1200 0.0000
vt 0.7400 0.1000 0.0000
vt 0.9800 0.1000 0.0000
vt 0.9800 0.1200 0.0000
vt 0.9242 0.1200 0.0000
vt 0.9242 0.1000 0.0000
vt 0.7400 0.1400 0.0000
vt 0.5000 0.1800 0.0000
vt 0.5000 0.1600 0.0000
vt 0.5000 0.1400 0.0000
vt 0.5000 0.1200 0.0000
vt 0.2600 0.1800 0.0000
vt 0.0200 0.1800 0.0000
vt 0.9800 0.0800 0.0000
vt 0.7400 0.0800 0.0000
vt 0.9800 0.0600 0.0000
vt 0.7400 0.0600 0.0000
vt 0.9242 0.0800 0.0000
vt 0.9242 0.0600 0.0000
# 38 texture coords

g RailDir1
f 65/95/40 66/96/40 67/97/40 
f 67/97/40 68/98/40 65/95/40 
f 69/99/41 70/100/41 71/101/41 
f 71/101/41 72/102/40 69/99/41 
f 73/103/42 65/95/42 68/98/43 
f 68/98/43 74/104/43 73/103/42 
f 75/105/44 69/99/44 72/102/45 
f 72/102/45 76/106/45 75/105/44 
f 77/107/46 78/108/46 79/109/46 
f 79/109/46 80/110/46 77/107/46 
f 81/111/47 82/112/47 79/109/48 
f 79/109/48 78/113/48 81/111/47 
f 83/114/49 84/115/49 71/116/50 
f 71/116/50 85/117/50 83/114/49 
f 86/118/51 87/119/51 67/116/51 
f 67/116/51 88/117/51 86/118/51 
f 80/110/40 79/109/40 82/112/52 
f 82/112/52 89/120/41 80/110/40 
f 77/117/53 80/110/53 89/120/54 
f 89/120/54 90/114/54 77/117/53 
f 91/121/55 92/122/55 82/112/47 
f 82/112/47 81/111/47 91/121/55 
f 89/120/41 82/112/52 92/122/41 
f 92/122/41 93/123/41 89/120/41 
f 90/114/54 89/120/54 93/123/56 
f 93/123/56 94/124/56 90/114/54 
f 95/125/57 70/100/57 92/122/55 
f 92/122/55 91/121/55 95/125/57 
f 93/123/41 92/122/41 70/100/41 
f 70/100/41 69/99/41 93/123/41 
f 94/124/56 93/123/56 69/99/44 
f 69/99/44 75/105/44 94/124/56 
f 85/126/50 71/101/50 70/100/57 
f 70/100/57 95/125/57 85/126/50 
f 72/127/40 71/116/41 84/115/52 
f 84/115/52 96/128/41 72/127/40 
f 76/129/45 72/127/45 96/128/58 
f 96/128/58 97/130/58 76/129/45 
f 98/124/59 66/96/59 84/115/49 
f 84/115/49 83/114/49 98/124/59 
f 96/128/41 84/115/52 66/96/40 
f 66/96/40 65/95/40 96/128/41 
f 97/130/58 96/128/58 65/95/42 
f 65/95/42 73/103/42 97/130/58 
f 88/106/51 67/97/51 66/96/59 
f 66/96/59 98/124/59 88/106/51 
f 68/127/40 67/116/40 87/119/40 
f 87/119/40 99/131/40 68/127/40 
f 74/129/43 68/127/43 99/131/43 
f 99/131/43 100/132/43 74/129/43 
# 50 faces

#
# object RailDir2
#

v  10.2961 7.1500 0.0000
v  10.2961 7.2500 0.0000
v  8.2391 7.2499 0.0000
v  8.2391 7.1499 0.0000
v  13.5438 7.5075 0.0000
v  13.5218 7.6050 0.0000
v  12.4558 7.4057 0.0000
v  12.4704 7.3068 0.0000
v  10.2961 7.1500 -0.1000
v  8.2391 7.1499 -0.1000
v  13.5438 7.5075 -0.1000
v  12.4704 7.3068 -0.1000
v  11.3781 7.2872 -0.1000
v  11.3781 7.2872 0.0000
v  12.4558 7.4057 -0.1000
v  8.0000 7.2499 -0.1000
v  8.0000 7.2499 0.0000
v  8.2391 7.2499 -0.1000
v  16.0000 8.3088 0.0000
v  16.0000 8.4178 0.0000
v  15.5950 8.2414 0.0000
v  15.6315 8.1482 0.0000
v  16.0000 8.3088 -0.1000
v  15.6315 8.1482 -0.1000
v  14.5709 7.8843 -0.1000
v  14.5709 7.8843 0.0000
v  15.5950 8.2414 -0.1000
v  14.6003 7.7887 0.0000
v  14.6003 7.7887 -0.1000
v  13.5218 7.6050 -0.1000
v  11.3853 7.1875 0.0000
v  11.3853 7.1875 -0.1000
v  10.2961 7.2500 -0.1000
v  8.0000 7.1499 0.0000
v  8.0000 7.1499 -0.1000
v  16.0000 8.4178 -0.1000
# 36 vertices

vn 0.0000 0.0000 1.0000
vn -0.0000 0.0000 1.0000
vn 0.0172 -0.9999 0.0000
vn 0.0000 -1.0000 0.0000
vn 0.2207 -0.9754 0.0000
vn 0.1466 -0.9892 0.0000
vn -0.0719 0.9974 0.0000
vn -0.1466 0.9892 0.0000
vn -0.0000 1.0000 0.0000
vn 0.0000 -0.0000 1.0000
vn 0.3993 -0.9168 0.0000
vn 0.3645 -0.9312 0.0000
vn -0.2934 0.9560 0.0000
vn -0.3645 0.9312 0.0000
vn 0.2934 -0.9560 0.0000
vn -0.2207 0.9754 0.0000
vn -0.0000 -0.0000 1.0000
vn 0.0719 -0.9974 0.0000
vn -0.0172 0.9999 0.0000
vn -0.3993 0.9168 0.0000
# 20 vertex normals

vt 0.5000 0.0800 0.0000
vt 0.5000 0.1000 0.0000
vt 0.0200 0.1000 0.0000
vt 0.0200 0.0800 0.0000
vt 0.2600 0.1400 0.0000
vt 0.2600 0.1600 0.0000
vt 0.0200 0.1600 0.0000
vt 0.0200 0.1400 0.0000
vt 0.5000 0.0600 0.0000
vt 0.0200 0.0600 0.0000
vt 0.2600 0.1200 0.0000
vt 0.0200 0.1200 0.0000
vt 0.7400 0.1200 0.0000
vt 0.7400 0.1000 0.0000
vt 0.9800 0.1000 0.0000
vt 0.9800 0.1200 0.0000
vt 0.9242 0.1200 0.0000
vt 0.9242 0.1000 0.0000
vt 0.8284 0.1400 0.0000
vt 0.8378 0.1600 0.0000
vt 0.7400 0.1600 0.0000
vt 0.7400 0.1400 0.0000
vt 0.8284 0.1200 0.0000
vt 0.5000 0.1800 0.0000
vt 0.5000 0.1600 0.0000
vt 0.7400 0.1800 0.0000
vt 0.5000 0.1400 0.0000
vt 0.5000 0.1200 0.0000
vt 0.2600 0.1800 0.0000
vt 0.0200 0.1800 0.0000
vt 0.9800 0.0800 0.0000
vt 0.7400 0.0800 0.0000
vt 0.9800 0.0600 0.0000
vt 0.7400 0.0600 0.0000
vt 0.9242 0.0800 0.0000
vt 0.9242 0.0600 0.0000
vt 0.8378 0.1800 0.0000
# 37 texture coords

g RailDir2
f 101/133/60 102/134/60 103/135/61 
f 103/135/61 104/136/61 101/133/60 
f 105/137/61 106/138/61 107/139/61 
f 107/139/61 108/140/60 105/137/61 
f 109/141/62 101/133/62 104/136/63 
f 104/136/63 110/142/63 109/141/62 
f 111/143/64 105/137/64 108/140/65 
f 108/140/65 112/144/65 111/143/64 
f 113/145/66 114/146/66 107/147/67 
f 107/147/67 115/148/67 113/145/66 
f 116/149/68 117/150/68 103/147/68 
f 103/147/68 118/148/68 116/149/68 
f 119/151/69 120/152/69 121/153/69 
f 121/153/69 122/154/60 119/151/69 
f 123/155/70 119/151/70 122/154/71 
f 122/154/71 124/145/71 123/155/70 
f 125/156/72 126/157/72 121/153/73 
f 121/153/73 127/158/73 125/156/72 
f 122/154/60 121/153/69 126/157/61 
f 126/157/61 128/159/61 122/154/60 
f 124/145/71 122/154/71 128/159/74 
f 128/159/74 129/160/74 124/145/71 
f 130/161/75 106/138/75 126/157/72 
f 126/157/72 125/156/72 130/161/75 
f 128/159/61 126/157/61 106/138/61 
f 106/138/61 105/137/61 128/159/61 
f 129/160/74 128/159/74 105/137/64 
f 105/137/64 111/143/64 129/160/74 
f 115/162/67 107/139/67 106/138/75 
f 106/138/75 130/161/75 115/162/67 
f 108/163/60 107/147/61 114/146/76 
f 114/146/76 131/164/61 108/163/60 
f 112/165/65 108/163/65 131/164/77 
f 131/164/77 132/166/77 112/165/65 
f 133/160/78 102/134/78 114/146/66 
f 114/146/66 113/145/66 133/160/78 
f 131/164/61 114/146/76 102/134/60 
f 102/134/60 101/133/60 131/164/61 
f 132/166/77 131/164/77 101/133/62 
f 101/133/62 109/141/62 132/166/77 
f 118/144/68 103/135/68 102/134/78 
f 102/134/78 133/160/78 118/144/68 
f 104/163/61 103/147/61 117/150/61 
f 117/150/61 134/167/61 104/163/61 
f 110/165/63 104/163/63 134/167/63 
f 134/167/63 135/168/63 110/165/63 
f 127/158/73 121/153/73 120/152/79 
f 120/152/79 136/169/79 127/158/73 
# 48 faces

#
# object Box017
#

#
# object Box018
#

#
# object Box019
#

#
# object Box020
#

#
# object Box021
#

#
# object Box022
#

#
# object Box023
#

#
# object Box024
#

#
# object Box025
#

#
# object Box026
#

#
# object Box027
#

#
# object Box028
#

#
# object Box029
#

#
# object Box030
#

#
# object Box031
#

#
# object Box032
#

v  16.0000 10.5480 -0.2000
v  16.0000 10.5480 -0.1000
v  15.9504 10.6455 -0.1000
v  15.9504 10.6455 -0.2000
v  16.0000 10.6717 -0.1000
v  16.0000 10.6717 -0.2000
# 6 vertices

vn -0.8911 -0.4538 0.0000
vn 0.0000 0.0000 1.0000
vn -0.4671 0.8842 0.0000
# 3 vertex normals

vt 0.9396 1.0000 0.0000
vt 0.9396 0.9782 0.0000
vt 0.9800 0.9782 0.0000
vt 0.9800 1.0000 0.0000
vt 0.9800 0.9543 0.0000
vt 1.0000 0.9781 0.0000
vt 1.0000 0.9543 0.0000
# 7 texture coords

g Box032
f 137/170/80 138/171/80 139/172/80 
f 139/172/80 140/173/80 137/170/80 
f 141/174/81 139/172/81 138/171/81 
f 140/175/82 139/172/82 141/174/82 
f 141/174/82 142/176/82 140/175/82 
# 5 faces

#
# object RailDir003
#

v  16.0000 10.0584 0.0000
v  16.0000 10.1714 0.0000
v  15.8953 10.1161 0.0000
v  15.9386 10.0260 0.0000
v  16.0000 10.0584 -0.1000
v  15.9386 10.0260 -0.1000
v  15.8953 10.1161 -0.1000
v  16.0000 10.1714 -0.1000
# 8 vertices

vn 0.0000 0.0000 1.0000
vn 0.4672 -0.8842 0.0000
vn -0.9011 -0.4335 0.0000
vn -0.4672 0.8842 0.0000
# 4 vertex normals

vt 0.0371 0.0200 0.0000
vt 0.0495 0.0400 0.0000
vt 0.0200 0.0400 0.0000
vt 0.0200 0.0200 0.0000
vt 0.0371 0.0000 0.0000
vt 0.0200 0.0000 0.0000
vt 0.0000 0.0400 0.0000
vt 0.0000 0.0200 0.0000
vt 0.0200 0.0600 0.0000
vt 0.0495 0.0600 0.0000
# 10 texture coords

g RailDir003
f 143/177/83 144/178/83 145/179/83 
f 145/179/83 146/180/83 143/177/83 
f 147/181/84 143/177/84 146/180/84 
f 146/180/84 148/182/84 147/181/84 
f 149/183/85 148/184/85 146/180/85 
f 146/180/85 145/179/85 149/183/85 
f 149/185/86 145/179/86 144/178/86 
f 144/178/86 150/186/86 149/185/86 
# 8 faces

#
# object RailDir004
#

