# 3ds Max Wavefront OBJ Exporter v0.97b - (c)2007 guruware
# File Created: 10.12.2019 07:56:21

#
# object RailDir005
#

v  10.2961 7.2500 -0.0000
v  10.2961 7.1500 -0.0000
v  8.2390 7.1501 -0.0000
v  8.2390 7.2501 -0.0000
v  13.1908 6.9319 -0.0000
v  13.1688 6.8344 -0.0000
v  12.2212 7.0116 -0.0000
v  12.2358 7.1105 -0.0000
v  10.2961 7.2500 -0.1000
v  8.2390 7.2501 -0.1000
v  13.1908 6.9319 -0.1000
v  12.2358 7.1105 -0.1000
v  15.9386 5.9740 -0.1000
v  15.8953 5.8839 -0.1000
v  15.8953 5.8839 -0.0000
v  15.9386 5.9740 -0.0000
v  15.0117 6.2687 -0.1000
v  15.0117 6.2687 -0.0000
v  11.2632 7.1169 -0.1000
v  11.2632 7.1169 -0.0000
v  12.2212 7.0116 -0.1000
v  8.0000 7.1501 -0.1000
v  8.0000 7.1501 -0.0000
v  8.2390 7.1501 -0.1000
v  15.0482 6.3619 -0.0000
v  15.0482 6.3619 -0.1000
v  14.1014 6.5861 -0.1000
v  14.1014 6.5861 -0.0000
v  14.1308 6.6817 -0.0000
v  14.1308 6.6817 -0.1000
v  13.1688 6.8344 -0.1000
v  11.2704 7.2166 -0.0000
v  11.2704 7.2166 -0.1000
v  10.2961 7.1500 -0.1000
v  8.0000 7.2501 -0.0000
v  8.0000 7.2501 -0.1000
# 36 vertices

vn 0.0000 -0.0000 1.0000
vn -0.0000 -0.0000 1.0000
vn 0.0171 0.9999 0.0000
vn 0.0000 1.0000 0.0000
vn 0.2207 0.9754 0.0000
vn 0.1466 0.9892 0.0000
vn 0.9011 -0.4335 -0.0000
vn -0.3645 -0.9312 -0.0000
vn -0.3993 -0.9168 -0.0000
vn -0.0718 -0.9974 -0.0000
vn -0.1466 -0.9892 -0.0000
vn -0.0000 -1.0000 -0.0000
vn 0.3993 0.9168 0.0000
vn 0.3645 0.9312 0.0000
vn -0.2934 -0.9560 -0.0000
vn 0.2934 0.9560 0.0000
vn -0.2207 -0.9754 -0.0000
vn 0.0718 0.9974 0.0000
vn -0.0171 -0.9999 -0.0000
# 19 vertex normals

vt 0.5000 0.0800 0.0000
vt 0.5000 0.1000 0.0000
vt 0.0200 0.1000 0.0000
vt 0.0200 0.0800 0.0000
vt 0.2600 0.1400 0.0000
vt 0.2600 0.1600 0.0000
vt 0.0200 0.1600 0.0000
vt 0.0200 0.1400 0.0000
vt 0.5000 0.0600 0.0000
vt 0.0200 0.0600 0.0000
vt 0.2600 0.1200 0.0000
vt 0.0200 0.1200 0.0000
vt 1.0000 0.1400 0.0000
vt 1.0000 0.1600 0.0000
vt 0.9800 0.1600 0.0000
vt 0.9800 0.1400 0.0000
vt 0.7400 0.1800 0.0000
vt 0.7400 0.1600 0.0000
vt 0.9800 0.1800 0.0000
vt 0.7400 0.1200 0.0000
vt 0.7400 0.1000 0.0000
vt 0.9800 0.1000 0.0000
vt 0.9800 0.1200 0.0000
vt 0.9242 0.1200 0.0000
vt 0.9242 0.1000 0.0000
vt 0.7400 0.1400 0.0000
vt 0.5000 0.1800 0.0000
vt 0.5000 0.1600 0.0000
vt 0.5000 0.1400 0.0000
vt 0.5000 0.1200 0.0000
vt 0.2600 0.1800 0.0000
vt 0.0200 0.1800 0.0000
vt 0.9800 0.0800 0.0000
vt 0.7400 0.0800 0.0000
vt 0.9800 0.0600 0.0000
vt 0.7400 0.0600 0.0000
vt 0.9242 0.0800 0.0000
vt 0.9242 0.0600 0.0000
# 38 texture coords

g RailDir005
f 3/3/1 2/2/1 1/1/1 
f 1/1/1 4/4/2 3/3/1 
f 7/7/2 6/6/2 5/5/2 
f 5/5/2 8/8/2 7/7/2 
f 4/4/4 1/1/3 9/9/3 
f 9/9/3 10/10/4 4/4/4 
f 8/8/6 5/5/5 11/11/5 
f 11/11/5 12/12/6 8/8/6 
f 15/15/7 14/14/7 13/13/7 
f 13/13/7 16/16/7 15/15/7 
f 15/15/9 18/18/8 17/17/8 
f 17/17/8 14/19/9 15/15/9 
f 7/22/11 20/21/10 19/20/10 
f 19/20/10 21/23/11 7/22/11 
f 3/22/12 23/25/12 22/24/12 
f 22/24/12 24/23/12 3/22/12 
f 18/18/2 15/15/2 16/16/2 
f 16/16/2 25/26/2 18/18/2 
f 25/26/14 16/16/13 13/23/13 
f 13/23/13 26/20/14 25/26/14 
f 18/18/8 28/28/15 27/27/15 
f 27/27/15 17/17/8 18/18/8 
f 28/28/2 18/18/2 25/26/2 
f 25/26/2 29/29/2 28/28/2 
f 29/29/16 25/26/14 26/20/14 
f 26/20/14 30/30/16 29/29/16 
f 28/28/15 6/6/17 31/31/17 
f 31/31/17 27/27/15 28/28/15 
f 6/6/2 28/28/2 29/29/2 
f 29/29/2 5/5/2 6/6/2 
f 5/5/5 29/29/16 30/30/16 
f 30/30/16 11/11/5 5/5/5 
f 6/6/17 7/7/11 21/32/11 
f 21/32/11 31/31/17 6/6/17 
f 20/21/2 7/22/2 8/33/2 
f 8/33/2 32/34/2 20/21/2 
f 32/34/18 8/33/6 12/35/6 
f 12/35/6 33/36/18 32/34/18 
f 20/21/10 2/2/19 34/30/19 
f 34/30/19 19/20/10 20/21/10 
f 2/2/1 20/21/2 32/34/2 
f 32/34/2 1/1/1 2/2/1 
f 1/1/3 32/34/18 33/36/18 
f 33/36/18 9/9/3 1/1/3 
f 2/2/19 3/3/12 24/12/12 
f 24/12/12 34/30/19 2/2/19 
f 23/25/2 3/22/1 4/33/2 
f 4/33/2 35/37/2 23/25/2 
f 35/37/4 4/33/4 10/35/4 
f 10/35/4 36/38/4 35/37/4 
# 50 faces

#
# object RailDir006
#

v  10.2961 8.8500 0.0000
v  10.2961 8.7500 0.0000
v  8.2391 8.7501 0.0000
v  8.2391 8.8501 0.0000
v  13.5438 8.4925 0.0000
v  13.5218 8.3950 0.0000
v  12.4558 8.5943 0.0000
v  12.4704 8.6932 0.0000
v  10.2961 8.8500 -0.1000
v  8.2391 8.8501 -0.1000
v  13.5438 8.4925 -0.1000
v  12.4704 8.6932 -0.1000
v  11.3781 8.7128 -0.1000
v  11.3781 8.7128 0.0000
v  12.4558 8.5943 -0.1000
v  8.0000 8.7501 -0.1000
v  8.0000 8.7501 0.0000
v  8.2391 8.7501 -0.1000
v  16.0000 7.6912 -0.0000
v  16.0000 7.5822 -0.0000
v  15.5950 7.7586 -0.0000
v  15.6315 7.8518 0.0000
v  16.0000 7.6912 -0.1000
v  15.6315 7.8518 -0.1000
v  14.5709 8.1157 -0.1000
v  14.5709 8.1157 0.0000
v  15.5950 7.7586 -0.1000
v  14.6003 8.2113 0.0000
v  14.6003 8.2113 -0.1000
v  13.5218 8.3950 -0.1000
v  11.3853 8.8125 0.0000
v  11.3853 8.8125 -0.1000
v  10.2961 8.7500 -0.1000
v  8.0000 8.8501 0.0000
v  8.0000 8.8501 -0.1000
v  16.0000 7.5822 -0.1000
# 36 vertices

vn 0.0000 -0.0000 1.0000
vn -0.0000 -0.0000 1.0000
vn 0.0172 0.9999 0.0000
vn 0.0000 1.0000 0.0000
vn 0.2207 0.9754 0.0000
vn 0.1466 0.9892 0.0000
vn -0.0719 -0.9974 -0.0000
vn -0.1466 -0.9892 -0.0000
vn -0.0000 -1.0000 -0.0000
vn 0.3993 0.9168 0.0000
vn 0.3645 0.9312 0.0000
vn -0.2934 -0.9560 -0.0000
vn -0.3645 -0.9312 -0.0000
vn 0.2934 0.9560 0.0000
vn -0.2207 -0.9754 -0.0000
vn 0.0719 0.9974 0.0000
vn -0.0172 -0.9999 -0.0000
vn -0.3993 -0.9168 -0.0000
# 18 vertex normals

vt 0.5000 0.0800 0.0000
vt 0.5000 0.1000 0.0000
vt 0.0200 0.1000 0.0000
vt 0.0200 0.0800 0.0000
vt 0.2600 0.1400 0.0000
vt 0.2600 0.1600 0.0000
vt 0.0200 0.1600 0.0000
vt 0.0200 0.1400 0.0000
vt 0.5000 0.0600 0.0000
vt 0.0200 0.0600 0.0000
vt 0.2600 0.1200 0.0000
vt 0.0200 0.1200 0.0000
vt 0.7400 0.1200 0.0000
vt 0.7400 0.1000 0.0000
vt 0.9800 0.1000 0.0000
vt 0.9800 0.1200 0.0000
vt 0.9242 0.1200 0.0000
vt 0.9242 0.1000 0.0000
vt 0.8284 0.1400 0.0000
vt 0.8378 0.1600 0.0000
vt 0.7400 0.1600 0.0000
vt 0.7400 0.1400 0.0000
vt 0.8284 0.1200 0.0000
vt 0.5000 0.1800 0.0000
vt 0.5000 0.1600 0.0000
vt 0.7400 0.1800 0.0000
vt 0.5000 0.1400 0.0000
vt 0.5000 0.1200 0.0000
vt 0.2600 0.1800 0.0000
vt 0.0200 0.1800 0.0000
vt 0.9800 0.0800 0.0000
vt 0.7400 0.0800 0.0000
vt 0.9800 0.0600 0.0000
vt 0.7400 0.0600 0.0000
vt 0.9242 0.0800 0.0000
vt 0.9242 0.0600 0.0000
vt 0.8378 0.1800 0.0000
# 37 texture coords

g RailDir006
f 39/41/21 38/40/20 37/39/20 
f 37/39/20 40/42/21 39/41/21 
f 43/45/21 42/44/21 41/43/21 
f 41/43/21 44/46/21 43/45/21 
f 40/42/23 37/39/22 45/47/22 
f 45/47/22 46/48/23 40/42/23 
f 44/46/25 41/43/24 47/49/24 
f 47/49/24 48/50/25 44/46/25 
f 43/53/27 50/52/26 49/51/26 
f 49/51/26 51/54/27 43/53/27 
f 39/53/28 53/56/28 52/55/28 
f 52/55/28 54/54/28 39/53/28 
f 57/59/20 56/58/20 55/57/20 
f 55/57/20 58/60/20 57/59/20 
f 58/60/30 55/57/29 59/61/29 
f 59/61/29 60/51/30 58/60/30 
f 57/59/32 62/63/31 61/62/31 
f 61/62/31 63/64/32 57/59/32 
f 62/63/21 57/59/20 58/60/20 
f 58/60/20 64/65/21 62/63/21 
f 64/65/33 58/60/30 60/51/30 
f 60/51/30 65/66/33 64/65/33 
f 62/63/31 42/44/34 66/67/34 
f 66/67/34 61/62/31 62/63/31 
f 42/44/21 62/63/21 64/65/21 
f 64/65/21 41/43/21 42/44/21 
f 41/43/24 64/65/33 65/66/33 
f 65/66/33 47/49/24 41/43/24 
f 42/44/34 43/45/27 51/68/27 
f 51/68/27 66/67/34 42/44/34 
f 50/52/21 43/53/21 44/69/21 
f 44/69/21 67/70/21 50/52/21 
f 67/70/35 44/69/25 48/71/25 
f 48/71/25 68/72/35 67/70/35 
f 50/52/26 38/40/36 69/66/36 
f 69/66/36 49/51/26 50/52/26 
f 38/40/20 50/52/21 67/70/21 
f 67/70/21 37/39/20 38/40/20 
f 37/39/22 67/70/35 68/72/35 
f 68/72/35 45/47/22 37/39/22 
f 38/40/36 39/41/28 54/50/28 
f 54/50/28 69/66/36 38/40/36 
f 53/56/21 39/53/21 40/69/21 
f 40/69/21 70/73/21 53/56/21 
f 70/73/23 40/69/23 46/71/23 
f 46/71/23 71/74/23 70/73/23 
f 56/58/37 57/59/32 63/64/32 
f 63/64/32 72/75/37 56/58/37 
# 48 faces

#
# object Box033
#

v  15.4474 5.5965 -0.2000
v  15.1063 5.7451 -0.2000
v  15.1063 5.7451 -0.1000
v  15.4474 5.5965 -0.1000
v  16.0000 7.8843 -0.2000
v  16.0000 7.8843 -0.1000
v  16.0000 6.8149 -0.1000
v  16.0000 6.8149 -0.2000
# 8 vertices

vn -0.3993 -0.9168 -0.0000
vn -0.9227 0.3855 0.0000
vn -0.0000 -0.0000 1.0000
vn 0.9107 -0.4131 -0.0000
# 4 vertex normals

vt 1.0000 0.8200 0.0000
vt 1.0000 0.9781 0.0000
vt 0.9800 0.9782 0.0000
vt 0.9800 0.8200 0.0000
vt 0.1240 1.0000 0.0000
vt 0.1240 0.9783 0.0000
vt 0.9800 1.0000 0.0000
vt 0.4860 0.8200 0.0000
vt 0.9800 0.8000 0.0000
vt 0.4860 0.8000 0.0000
# 10 texture coords

g Box033
f 75/78/38 74/77/38 73/76/38 
f 73/76/38 76/79/38 75/78/38 
f 75/78/39 78/81/39 77/80/39 
f 77/80/39 74/82/39 75/78/39 
f 75/78/40 76/79/40 79/83/40 
f 79/83/40 78/81/40 75/78/40 
f 79/83/41 76/79/41 73/84/41 
f 73/84/41 80/85/41 79/83/41 
# 8 faces

#
# object Box034
#

v  15.0543 8.5387 -0.1000
v  15.4796 8.3903 -0.1000
v  14.5867 5.9485 -0.1000
v  14.2354 6.0710 -0.1000
v  15.0543 8.5387 -0.2000
v  15.4796 8.3903 -0.2000
v  14.5867 5.9485 -0.2000
v  14.2354 6.0710 -0.2000
# 8 vertices

vn -0.0000 -0.0000 1.0000
vn 0.3292 0.9442 0.0000
vn 0.9392 -0.3434 -0.0000
vn -0.3292 -0.9442 -0.0000
vn -0.9491 0.3150 0.0000
# 5 vertex normals

vt 0.0200 0.9783 0.0000
vt 0.0200 0.8200 0.0000
vt 0.9800 0.8200 0.0000
vt 0.9800 0.9782 0.0000
vt 0.0000 0.9783 0.0000
vt 0.0000 0.8200 0.0000
vt 0.0200 0.8000 0.0000
vt 0.9800 0.8000 0.0000
vt 1.0000 0.8200 0.0000
vt 1.0000 0.9781 0.0000
vt 0.9800 1.0000 0.0000
vt 0.0200 1.0000 0.0000
# 12 texture coords

g Box034
f 83/88/42 82/87/42 81/86/42 
f 81/86/42 84/89/42 83/88/42 
f 82/87/43 86/91/43 85/90/43 
f 85/90/43 81/86/43 82/87/43 
f 83/88/44 87/93/44 86/92/44 
f 86/92/44 82/87/44 83/88/44 
f 84/89/45 88/95/45 87/94/45 
f 87/94/45 83/88/45 84/89/45 
f 81/86/46 85/97/46 88/96/46 
f 88/96/46 84/89/46 81/86/46 
# 10 faces

#
# object Box035
#

v  13.9721 8.8531 -0.1000
v  14.4080 8.7371 -0.1000
v  13.7014 6.2349 -0.1000
v  13.3412 6.3308 -0.1000
v  13.9721 8.8531 -0.2000
v  14.4080 8.7371 -0.2000
v  13.7014 6.2349 -0.2000
v  13.3412 6.3308 -0.2000
# 8 vertices

vn -0.0000 -0.0000 1.0000
vn 0.2572 0.9664 0.0000
vn 0.9624 -0.2718 -0.0000
vn -0.2572 -0.9664 -0.0000
vn -0.9701 0.2426 0.0000
# 5 vertex normals

vt 0.0200 0.9783 0.0000
vt 0.0200 0.8200 0.0000
vt 0.9800 0.8200 0.0000
vt 0.9800 0.9782 0.0000
vt 0.0000 0.9783 0.0000
vt 0.0000 0.8200 0.0000
vt 0.0200 0.8000 0.0000
vt 0.9800 0.8000 0.0000
vt 1.0000 0.8200 0.0000
vt 1.0000 0.9781 0.0000
vt 0.9800 1.0000 0.0000
vt 0.0200 1.0000 0.0000
# 12 texture coords

g Box035
f 91/100/47 90/99/47 89/98/47 
f 89/98/47 92/101/47 91/100/47 
f 90/99/48 94/103/48 93/102/48 
f 93/102/48 89/98/48 90/99/48 
f 91/100/49 95/105/49 94/104/49 
f 94/104/49 90/99/49 91/100/49 
f 92/101/50 96/107/50 95/106/50 
f 95/106/50 91/100/50 92/101/50 
f 89/98/51 93/109/51 96/108/51 
f 96/108/51 92/101/51 89/98/51 
# 10 faces

#
# object Box036
#

v  12.8699 9.0850 -0.1000
v  13.3127 9.0023 -0.1000
v  12.7965 6.4540 -0.1000
v  12.4307 6.5224 -0.1000
v  12.8699 9.0850 -0.2000
v  13.3127 9.0023 -0.2000
v  12.7965 6.4540 -0.2000
v  12.4307 6.5224 -0.2000
# 8 vertices

vn -0.0000 -0.0000 1.0000
vn 0.1838 0.9830 0.0000
vn 0.9801 -0.1985 -0.0000
vn -0.1838 -0.9830 -0.0000
vn -0.9856 0.1689 0.0000
# 5 vertex normals

vt 0.0200 0.9783 0.0000
vt 0.0200 0.8200 0.0000
vt 0.9800 0.8200 0.0000
vt 0.9800 0.9782 0.0000
vt 0.0000 0.9783 0.0000
vt 0.0000 0.8200 0.0000
vt 0.0200 0.8000 0.0000
vt 0.9800 0.8000 0.0000
vt 1.0000 0.8200 0.0000
vt 1.0000 0.9781 0.0000
vt 0.9800 1.0000 0.0000
vt 0.0200 1.0000 0.0000
# 12 texture coords

g Box036
f 99/112/52 98/111/52 97/110/52 
f 97/110/52 100/113/52 99/112/52 
f 98/111/53 102/115/53 101/114/53 
f 101/114/53 97/110/53 98/111/53 
f 99/112/54 103/117/54 102/116/54 
f 102/116/54 98/111/54 99/112/54 
f 100/113/55 104/119/55 103/118/55 
f 103/118/55 99/112/55 100/113/55 
f 97/110/56 101/121/56 104/120/56 
f 104/120/56 100/113/56 97/110/56 
# 10 faces

#
# object Box037
#

v  11.7543 9.2333 -0.1000
v  12.2018 9.1841 -0.1000
v  11.8787 6.6042 -0.1000
v  11.5090 6.6449 -0.1000
v  11.7543 9.2333 -0.2000
v  12.2018 9.1841 -0.2000
v  11.8787 6.6042 -0.2000
v  11.5090 6.6449 -0.2000
# 8 vertices

vn -0.0000 -0.0000 1.0000
vn 0.1093 0.9940 0.0000
vn 0.9922 -0.1243 -0.0000
vn -0.1093 -0.9940 -0.0000
vn -0.9955 0.0943 0.0000
# 5 vertex normals

vt 0.0200 0.9783 0.0000
vt 0.0200 0.8200 0.0000
vt 0.9800 0.8200 0.0000
vt 0.9800 0.9782 0.0000
vt 0.0000 0.9783 0.0000
vt 0.0000 0.8200 0.0000
vt 0.0200 0.8000 0.0000
vt 0.9800 0.8000 0.0000
vt 1.0000 0.8200 0.0000
vt 1.0000 0.9781 0.0000
vt 0.9800 1.0000 0.0000
vt 0.0200 1.0000 0.0000
# 12 texture coords

g Box037
f 107/124/57 106/123/57 105/122/57 
f 105/122/57 108/125/57 107/124/57 
f 106/123/58 110/127/58 109/126/58 
f 109/126/58 105/122/58 106/123/58 
f 107/124/59 111/129/59 110/128/59 
f 110/128/59 106/123/59 107/124/59 
f 108/125/60 112/131/60 111/130/60 
f 111/130/60 107/124/60 108/125/60 
f 105/122/61 109/133/61 112/132/61 
f 112/132/61 108/125/61 105/122/61 
# 10 faces

#
# object Box038
#

v  10.6299 9.2973 -0.1000
v  11.0804 9.2818 -0.1000
v  10.9522 6.6850 -0.1000
v  10.5800 6.6977 -0.1000
v  10.6299 9.2973 -0.2000
v  11.0804 9.2818 -0.2000
v  10.9522 6.6850 -0.2000
v  10.5800 6.6977 -0.2000
# 8 vertices

vn -0.0000 -0.0000 1.0000
vn 0.0342 0.9994 0.0000
vn 0.9988 -0.0493 -0.0000
vn -0.0342 -0.9994 -0.0000
vn -0.9998 0.0192 0.0000
# 5 vertex normals

vt 0.0200 0.9783 0.0000
vt 0.0200 0.8200 0.0000
vt 0.9800 0.8200 0.0000
vt 0.9800 0.9782 0.0000
vt 0.0000 0.9783 0.0000
vt 0.0000 0.8200 0.0000
vt 0.0200 0.8000 0.0000
vt 0.9800 0.8000 0.0000
vt 1.0000 0.8200 0.0000
vt 1.0000 0.9781 0.0000
vt 0.9800 1.0000 0.0000
vt 0.0200 1.0000 0.0000
# 12 texture coords

g Box038
f 115/136/62 114/135/62 113/134/62 
f 113/134/62 116/137/62 115/136/62 
f 114/135/63 118/139/63 117/138/63 
f 117/138/63 113/134/63 114/135/63 
f 115/136/64 119/141/64 118/140/64 
f 118/140/64 114/135/64 115/136/64 
f 116/137/65 120/143/65 119/142/65 
f 119/142/65 115/136/65 116/137/65 
f 113/134/66 117/145/66 120/144/66 
f 120/144/66 116/137/66 113/134/66 
# 10 faces

#
# object Box039
#

v  9.5762 9.3000 -0.1000
v  9.9876 9.3000 -0.1000
v  9.9875 6.7000 -0.1000
v  9.5761 6.7000 -0.1000
v  9.5762 9.3000 -0.2000
v  9.9876 9.3000 -0.2000
v  9.9875 6.7000 -0.2000
v  9.5761 6.7000 -0.2000
# 8 vertices

vn -0.0000 -0.0000 1.0000
vn 0.0000 1.0000 0.0000
vn 1.0000 -0.0000 -0.0000
vn -0.0000 -1.0000 -0.0000
vn -1.0000 0.0000 0.0000
# 5 vertex normals

vt 0.0200 0.9783 0.0000
vt 0.0200 0.8200 0.0000
vt 0.9800 0.8200 0.0000
vt 0.9800 0.9782 0.0000
vt 0.0000 0.9783 0.0000
vt 0.0000 0.8200 0.0000
vt 0.0200 0.8000 0.0000
vt 0.9800 0.8000 0.0000
vt 1.0000 0.8200 0.0000
vt 1.0000 0.9781 0.0000
vt 0.9800 1.0000 0.0000
vt 0.0200 1.0000 0.0000
# 12 texture coords

g Box039
f 123/148/67 122/147/67 121/146/67 
f 121/146/67 124/149/67 123/148/67 
f 122/147/68 126/151/68 125/150/68 
f 125/150/68 121/146/68 122/147/68 
f 123/148/69 127/153/69 126/152/69 
f 126/152/69 122/147/69 123/148/69 
f 124/149/70 128/155/70 127/154/70 
f 127/154/70 123/148/70 124/149/70 
f 121/146/71 125/157/71 128/156/71 
f 128/156/71 124/149/71 121/146/71 
# 10 faces

#
# object Box040
#

v  8.5477 9.3000 -0.1000
v  8.9591 9.3000 -0.1000
v  8.9590 6.7000 -0.1000
v  8.5476 6.7000 -0.1000
v  8.5477 9.3000 -0.2000
v  8.9591 9.3000 -0.2000
v  8.9590 6.7000 -0.2000
v  8.5476 6.7000 -0.2000
# 8 vertices

vn -0.0000 -0.0000 1.0000
vn 0.0000 1.0000 0.0000
vn 1.0000 -0.0000 -0.0000
vn -0.0000 -1.0000 -0.0000
vn -1.0000 0.0000 0.0000
# 5 vertex normals

vt 0.0200 0.9783 0.0000
vt 0.0200 0.8200 0.0000
vt 0.9800 0.8200 0.0000
vt 0.9800 0.9782 0.0000
vt 0.0000 0.9783 0.0000
vt 0.0000 0.8200 0.0000
vt 0.0200 0.8000 0.0000
vt 0.9800 0.8000 0.0000
vt 1.0000 0.8200 0.0000
vt 1.0000 0.9781 0.0000
vt 0.9800 1.0000 0.0000
vt 0.0200 1.0000 0.0000
# 12 texture coords

g Box040
f 131/160/72 130/159/72 129/158/72 
f 129/158/72 132/161/72 131/160/72 
f 130/159/73 134/163/73 133/162/73 
f 133/162/73 129/158/73 130/159/73 
f 131/160/74 135/165/74 134/164/74 
f 134/164/74 130/159/74 131/160/74 
f 132/161/75 136/167/75 135/166/75 
f 135/166/75 131/160/75 132/161/75 
f 129/158/76 133/169/76 136/168/76 
f 136/168/76 132/161/76 129/158/76 
# 10 faces

#
# object Box041
#

#
# object Box042
#

#
# object Box043
#

#
# object Box044
#

#
# object Box045
#

#
# object Box046
#

#
# object Box047
#

#
# object Box048
#

#
# object Box049
#

v  16.0000 5.4520 -0.2000
v  16.0000 5.4520 -0.1000
v  15.9504 5.3545 -0.1000
v  15.9504 5.3545 -0.2000
v  16.0000 5.3283 -0.1000
v  16.0000 5.3283 -0.2000
# 6 vertices

vn -0.8911 0.4538 0.0000
vn -0.0000 -0.0000 1.0000
vn -0.4671 -0.8842 -0.0000
# 3 vertex normals

vt 0.9396 1.0000 0.0000
vt 0.9396 0.9782 0.0000
vt 0.9800 0.9782 0.0000
vt 0.9800 1.0000 0.0000
vt 0.9800 0.9543 0.0000
vt 1.0000 0.9781 0.0000
vt 1.0000 0.9543 0.0000
# 7 texture coords

g Box049
f 139/172/77 138/171/77 137/170/77 
f 137/170/77 140/173/77 139/172/77 
f 138/171/78 139/172/78 141/174/78 
f 141/174/79 139/172/79 140/175/79 
f 140/175/79 142/176/79 141/174/79 
# 5 faces

#
# object Box050
#

#
# object Box051
#

#
# object Box052
#

#
# object Box053
#

#
# object Box054
#

#
# object Box055
#

#
# object Box056
#

#
# object Box057
#

#
# object Box058
#

#
# object Box059
#

#
# object Box060
#

#
# object Box061
#

#
# object Box062
#

#
# object Box063
#

#
# object Box064
#

#
# object RailDir007
#

v  16.0000 5.9416 -0.0000
v  16.0000 5.8286 -0.0000
v  15.8953 5.8839 -0.0000
v  15.9386 5.9740 -0.0000
v  16.0000 5.9416 -0.1000
v  15.9386 5.9740 -0.1000
v  15.8953 5.8839 -0.1000
v  16.0000 5.8286 -0.1000
# 8 vertices

vn -0.0000 -0.0000 1.0000
vn 0.4672 0.8842 0.0000
vn -0.9011 0.4335 0.0000
vn -0.4672 -0.8842 -0.0000
# 4 vertex normals

vt 0.0371 0.0200 0.0000
vt 0.0495 0.0400 0.0000
vt 0.0200 0.0400 0.0000
vt 0.0200 0.0200 0.0000
vt 0.0371 0.0000 0.0000
vt 0.0200 0.0000 0.0000
vt 0.0000 0.0400 0.0000
vt 0.0000 0.0200 0.0000
vt 0.0200 0.0600 0.0000
vt 0.0495 0.0600 0.0000
# 10 texture coords

g RailDir007
f 145/179/80 144/178/80 143/177/80 
f 143/177/80 146/180/80 145/179/80 
f 146/180/81 143/177/81 147/181/81 
f 147/181/81 148/182/81 146/180/81 
f 146/180/82 148/184/82 149/183/82 
f 149/183/82 145/179/82 146/180/82 
f 144/178/83 145/179/83 149/185/83 
f 149/185/83 150/186/83 144/178/83 
# 8 faces

#
# object RailDir008
#

