# 3ds Max Wavefront OBJ Exporter v0.97b - (c)2007 guruware
# File Created: 10.12.2019 07:52:08

#
# object RailDir005
#

#
# object RailDir006
#

#
# object Box033
#

#
# object Box034
#

#
# object Box035
#

#
# object Box036
#

#
# object Box037
#

#
# object Box038
#

#
# object Box039
#

#
# object Box040
#

#
# object Box041
#

#
# object Box042
#

#
# object Box043
#

#
# object Box044
#

#
# object Box045
#

#
# object Box046
#

#
# object Box047
#

#
# object Box048
#

#
# object Box049
#

#
# object Box050
#

#
# object Box051
#

#
# object Box052
#

#
# object Box053
#

#
# object Box054
#

#
# object Box055
#

v  9.1563 0.6824 -0.1000
v  9.4473 0.3914 -0.1000
v  9.0558 0.0000 -0.1000
v  8.4740 0.0000 -0.1000
v  9.1563 0.6824 -0.2000
v  9.4473 0.3914 -0.2000
v  9.0558 0.0000 -0.2000
v  8.4740 0.0000 -0.2000
# 8 vertices

vn 0.0000 -0.0000 1.0000
vn -0.0000 -0.0000 1.0000
vn 0.7071 0.7071 0.0000
vn 0.7071 -0.7071 -0.0000
vn -0.7071 0.7071 0.0000
# 5 vertex normals

vt 0.0200 0.9783 0.0000
vt 0.0200 0.8200 0.0000
vt 0.2244 0.8200 0.0000
vt 0.3763 0.9782 0.0000
vt 0.0000 0.9783 0.0000
vt 0.0000 0.8200 0.0000
vt 0.2244 0.8000 0.0000
vt 0.0200 0.8000 0.0000
vt 0.0200 1.0000 0.0000
vt 0.3763 1.0000 0.0000
# 10 texture coords

g Box055
f 3/3/2 2/2/1 1/1/1 
f 1/1/1 4/4/2 3/3/2 
f 2/2/3 6/6/3 5/5/3 
f 5/5/3 1/1/3 2/2/3 
f 2/2/4 3/3/4 7/7/4 
f 7/7/4 6/8/4 2/2/4 
f 4/4/5 1/1/5 5/9/5 
f 5/9/5 8/10/5 4/4/5 
# 8 faces

#
# object Box056
#

v  8.4291 1.4096 -0.1000
v  8.7200 1.1187 -0.1000
v  7.6013 0.0000 -0.1000
v  7.0195 0.0000 -0.1000
v  8.4291 1.4096 -0.2000
v  8.7200 1.1187 -0.2000
v  7.6013 0.0000 -0.2000
v  7.0195 0.0000 -0.2000
# 8 vertices

vn -0.0000 -0.0000 1.0000
vn 0.7071 0.7071 0.0000
vn 0.7071 -0.7071 -0.0000
vn -0.7071 0.7071 0.0000
# 4 vertex normals

vt 0.0200 0.9783 0.0000
vt 0.0200 0.8200 0.0000
vt 0.6041 0.8200 0.0000
vt 0.7560 0.9782 0.0000
vt 0.0000 0.9783 0.0000
vt 0.0000 0.8200 0.0000
vt 0.6041 0.8000 0.0000
vt 0.0200 0.8000 0.0000
vt 0.0200 1.0000 0.0000
vt 0.7560 1.0000 0.0000
# 10 texture coords

g Box056
f 11/13/6 10/12/6 9/11/6 
f 9/11/6 12/14/6 11/13/6 
f 10/12/7 14/16/7 13/15/7 
f 13/15/7 9/11/7 10/12/7 
f 10/12/8 11/13/8 15/17/8 
f 15/17/8 14/18/8 10/12/8 
f 12/14/9 9/11/9 13/19/9 
f 13/19/9 16/20/9 12/14/9 
# 8 faces

#
# object Box057
#

v  7.7018 2.1369 -0.1000
v  7.9927 1.8460 -0.1000
v  6.1542 0.0074 -0.1000
v  5.8633 0.2983 -0.1000
v  7.7018 2.1369 -0.2000
v  7.9927 1.8460 -0.2000
v  6.1542 0.0074 -0.2000
v  5.8633 0.2983 -0.2000
# 8 vertices

vn -0.0000 -0.0000 1.0000
vn 0.7071 0.7071 0.0000
vn 0.7071 -0.7071 -0.0000
vn -0.7071 -0.7071 -0.0000
vn -0.7071 0.7071 0.0000
# 5 vertex normals

vt 0.0200 0.9783 0.0000
vt 0.0200 0.8200 0.0000
vt 0.9800 0.8200 0.0000
vt 0.9800 0.9782 0.0000
vt 0.0000 0.9783 0.0000
vt 0.0000 0.8200 0.0000
vt 0.0200 0.8000 0.0000
vt 0.9800 0.8000 0.0000
vt 1.0000 0.8200 0.0000
vt 1.0000 0.9781 0.0000
vt 0.9800 1.0000 0.0000
vt 0.0200 1.0000 0.0000
# 12 texture coords

g Box057
f 19/23/10 18/22/10 17/21/10 
f 17/21/10 20/24/10 19/23/10 
f 18/22/11 22/26/11 21/25/11 
f 21/25/11 17/21/11 18/22/11 
f 19/23/12 23/28/12 22/27/12 
f 22/27/12 18/22/12 19/23/12 
f 20/24/13 24/30/13 23/29/13 
f 23/29/13 19/23/13 20/24/13 
f 17/21/14 21/32/14 24/31/14 
f 24/31/14 20/24/14 17/21/14 
# 10 faces

#
# object Box058
#

v  6.9745 2.8641 -0.1000
v  7.2654 2.5732 -0.1000
v  5.4270 0.7347 -0.1000
v  5.1360 1.0256 -0.1000
v  6.9745 2.8641 -0.2000
v  7.2654 2.5732 -0.2000
v  5.4270 0.7347 -0.2000
v  5.1360 1.0256 -0.2000
# 8 vertices

vn -0.0000 -0.0000 1.0000
vn 0.7071 0.7071 0.0000
vn 0.7071 -0.7071 -0.0000
vn -0.7071 -0.7071 -0.0000
vn -0.7071 0.7071 0.0000
# 5 vertex normals

vt 0.0200 0.9783 0.0000
vt 0.0200 0.8200 0.0000
vt 0.9800 0.8200 0.0000
vt 0.9800 0.9782 0.0000
vt 0.0000 0.9783 0.0000
vt 0.0000 0.8200 0.0000
vt 0.0200 0.8000 0.0000
vt 0.9800 0.8000 0.0000
vt 1.0000 0.8200 0.0000
vt 1.0000 0.9781 0.0000
vt 0.9800 1.0000 0.0000
vt 0.0200 1.0000 0.0000
# 12 texture coords

g Box058
f 27/35/15 26/34/15 25/33/15 
f 25/33/15 28/36/15 27/35/15 
f 26/34/16 30/38/16 29/37/16 
f 29/37/16 25/33/16 26/34/16 
f 27/35/17 31/40/17 30/39/17 
f 30/39/17 26/34/17 27/35/17 
f 28/36/18 32/42/18 31/41/18 
f 31/41/18 27/35/18 28/36/18 
f 25/33/19 29/44/19 32/43/19 
f 32/43/19 28/36/19 25/33/19 
# 10 faces

#
# object Box059
#

v  6.2472 3.5914 -0.1000
v  6.5381 3.3005 -0.1000
v  4.6997 1.4619 -0.1000
v  4.4087 1.7528 -0.1000
v  6.2472 3.5914 -0.2000
v  6.5381 3.3005 -0.2000
v  4.6997 1.4619 -0.2000
v  4.4087 1.7528 -0.2000
# 8 vertices

vn -0.0000 -0.0000 1.0000
vn 0.7071 0.7071 0.0000
vn 0.7071 -0.7071 -0.0000
vn -0.7071 -0.7071 -0.0000
vn -0.7071 0.7071 0.0000
# 5 vertex normals

vt 0.0200 0.9783 0.0000
vt 0.0200 0.8200 0.0000
vt 0.9800 0.8200 0.0000
vt 0.9800 0.9782 0.0000
vt 0.0000 0.9783 0.0000
vt 0.0000 0.8200 0.0000
vt 0.0200 0.8000 0.0000
vt 0.9800 0.8000 0.0000
vt 1.0000 0.8200 0.0000
vt 1.0000 0.9781 0.0000
vt 0.9800 1.0000 0.0000
vt 0.0200 1.0000 0.0000
# 12 texture coords

g Box059
f 35/47/20 34/46/20 33/45/20 
f 33/45/20 36/48/20 35/47/20 
f 34/46/21 38/50/21 37/49/21 
f 37/49/21 33/45/21 34/46/21 
f 35/47/22 39/52/22 38/51/22 
f 38/51/22 34/46/22 35/47/22 
f 36/48/23 40/54/23 39/53/23 
f 39/53/23 35/47/23 36/48/23 
f 33/45/24 37/56/24 40/55/24 
f 40/55/24 36/48/24 33/45/24 
# 10 faces

#
# object Box060
#

v  5.5199 4.3186 -0.1000
v  5.8108 4.0277 -0.1000
v  3.9724 2.1892 -0.1000
v  3.6815 2.4801 -0.1000
v  5.5199 4.3186 -0.2000
v  5.8108 4.0277 -0.2000
v  3.9724 2.1892 -0.2000
v  3.6815 2.4801 -0.2000
# 8 vertices

vn -0.0000 -0.0000 1.0000
vn 0.7071 0.7071 0.0000
vn 0.7071 -0.7071 -0.0000
vn -0.7071 -0.7071 -0.0000
vn -0.7071 0.7071 0.0000
# 5 vertex normals

vt 0.0200 0.9783 0.0000
vt 0.0200 0.8200 0.0000
vt 0.9800 0.8200 0.0000
vt 0.9800 0.9782 0.0000
vt 0.0000 0.9783 0.0000
vt 0.0000 0.8200 0.0000
vt 0.0200 0.8000 0.0000
vt 0.9800 0.8000 0.0000
vt 1.0000 0.8200 0.0000
vt 1.0000 0.9781 0.0000
vt 0.9800 1.0000 0.0000
vt 0.0200 1.0000 0.0000
# 12 texture coords

g Box060
f 43/59/25 42/58/25 41/57/25 
f 41/57/25 44/60/25 43/59/25 
f 42/58/26 46/62/26 45/61/26 
f 45/61/26 41/57/26 42/58/26 
f 43/59/27 47/64/27 46/63/27 
f 46/63/27 42/58/27 43/59/27 
f 44/60/28 48/66/28 47/65/28 
f 47/65/28 43/59/28 44/60/28 
f 41/57/29 45/68/29 48/67/29 
f 48/67/29 44/60/29 41/57/29 
# 10 faces

#
# object Box061
#

v  5.0835 4.7550 -0.2000
v  3.2451 2.9164 -0.2000
v  3.2451 2.9164 -0.1000
v  5.0835 4.7550 -0.1000
v  3.0803 3.0803 -0.2000
v  3.0803 3.0803 -0.1000
v  4.9187 4.9187 -0.1000
v  4.9187 4.9187 -0.2000
# 8 vertices

vn 0.7071 -0.7071 -0.0000
vn -0.7052 -0.7090 -0.0000
vn -0.0000 -0.0000 1.0000
vn 0.7050 0.7092 0.0000
# 4 vertex normals

vt 0.0200 0.8000 0.0000
vt 0.9800 0.8000 0.0000
vt 0.9800 0.8200 0.0000
vt 0.0200 0.8200 0.0000
vt 1.0000 0.9131 0.0000
vt 0.9800 0.9131 0.0000
vt 1.0000 0.8200 0.0000
vt 0.0200 0.9058 0.0000
vt 0.0000 0.8200 0.0000
vt 0.0000 0.9058 0.0000
# 10 texture coords

g Box061
f 51/71/30 50/70/30 49/69/30 
f 49/69/30 52/72/30 51/71/30 
f 51/71/31 54/74/31 53/73/31 
f 53/73/31 50/75/31 51/71/31 
f 54/74/32 51/71/32 52/72/32 
f 52/72/32 55/76/32 54/74/32 
f 55/76/33 52/72/33 49/77/33 
f 49/77/33 56/78/33 55/76/33 
# 8 faces

#
# object Box062
#

#
# object Box063
#

#
# object Box064
#

#
# object RailDir007
#

v  6.0340 0.9054 -0.0000
v  6.9395 0.0000 -0.0000
v  6.7981 0.0000 -0.0000
v  5.9633 0.8347 -0.0000
v  6.9395 0.0000 -0.1000
v  6.0340 0.9054 -0.1000
v  4.5088 2.2892 -0.1000
v  4.5088 2.2892 -0.0000
v  5.9633 0.8347 -0.1000
v  4.5795 2.3599 -0.0000
v  3.7815 3.0165 -0.0000
v  3.8522 3.0872 -0.0000
v  4.5795 2.3599 -0.1000
v  3.8522 3.0872 -0.1000
v  3.3958 3.3958 -0.1000
v  3.3958 3.3958 -0.0000
v  3.7815 3.0165 -0.1000
v  3.4665 3.4665 -0.0000
v  3.4665 3.4665 -0.1000
v  6.7981 0.0000 -0.1000
# 20 vertices

vn 0.0000 -0.0000 1.0000
vn 0.0000 0.0000 1.0000
vn -0.0000 -0.0000 1.0000
vn 0.7071 0.7071 0.0000
vn -0.7071 -0.7071 -0.0000
vn 0.7042 0.7100 0.0000
vn -0.7013 -0.7129 -0.0000
vn -0.7042 -0.7100 -0.0000
vn 0.7013 0.7129 0.0000
# 9 vertex normals

vt 0.0200 0.0800 0.0000
vt 0.3188 0.0800 0.0000
vt 0.2955 0.1000 0.0000
vt 0.0200 0.1000 0.0000
vt 0.3188 0.0600 0.0000
vt 0.0200 0.0600 0.0000
vt 0.5000 0.1200 0.0000
vt 0.5000 0.1000 0.0000
vt 0.9800 0.1000 0.0000
vt 0.9800 0.1200 0.0000
vt 0.5000 0.0800 0.0000
vt 0.2600 0.1000 0.0000
vt 0.2600 0.0800 0.0000
vt 0.5000 0.0600 0.0000
vt 0.2600 0.0600 0.0000
vt 0.1300 0.1200 0.0000
vt 0.1300 0.1000 0.0000
vt 0.2600 0.1200 0.0000
vt 0.9800 0.0800 0.0000
vt 0.9800 0.0600 0.0000
vt 0.1304 0.0800 0.0000
vt 0.1304 0.0600 0.0000
vt 0.0200 0.1200 0.0000
vt 0.2955 0.1200 0.0000
# 24 texture coords

g RailDir007
f 59/81/35 58/80/35 57/79/34 
f 57/79/34 60/82/36 59/81/35 
f 57/79/37 58/80/37 61/83/37 
f 61/83/37 62/84/37 57/79/37 
f 60/87/38 64/86/38 63/85/38 
f 63/85/38 65/88/38 60/87/38 
f 67/90/34 64/86/34 66/89/34 
f 66/89/34 68/91/34 67/90/34 
f 68/91/39 66/89/37 69/92/37 
f 69/92/37 70/93/39 68/91/39 
f 67/90/41 72/95/40 71/94/40 
f 71/94/40 73/96/41 67/90/41 
f 64/86/38 67/90/41 73/96/41 
f 73/96/41 63/85/38 64/86/38 
f 64/86/34 60/87/36 57/97/34 
f 57/97/34 66/89/34 64/86/34 
f 66/89/37 57/97/37 62/98/37 
f 62/98/37 69/92/37 66/89/37 
f 72/95/34 67/90/34 68/91/34 
f 68/91/34 74/99/34 72/95/34 
f 74/99/42 68/91/39 70/93/39 
f 70/93/39 75/100/42 74/99/42 
f 59/81/38 60/82/38 65/101/38 
f 65/101/38 76/102/38 59/81/38 
# 24 faces

#
# object RailDir008
#

v  7.1654 2.0368 -0.0000
v  9.2023 0.0000 -0.0000
v  9.0609 -0.0000 -0.0000
v  7.0947 1.9661 -0.0000
v  9.2023 0.0000 -0.1000
v  7.1654 2.0368 -0.1000
v  5.6401 3.4206 -0.1000
v  5.6401 3.4206 -0.0000
v  7.0947 1.9661 -0.1000
v  5.7108 3.4913 -0.0000
v  4.9128 4.1479 -0.0000
v  4.9835 4.2186 -0.0000
v  5.7108 3.4913 -0.1000
v  4.9835 4.2186 -0.1000
v  4.5270 4.5270 -0.1000
v  4.5270 4.5270 -0.0000
v  4.9128 4.1479 -0.1000
v  4.5977 4.5977 -0.0000
v  4.5977 4.5977 -0.1000
v  9.0609 -0.0000 -0.1000
# 20 vertices

vn 0.0000 -0.0000 1.0000
vn -0.0000 -0.0000 1.0000
vn 0.7071 0.7071 0.0000
vn -0.7071 -0.7071 -0.0000
vn 0.7040 0.7102 0.0000
vn -0.7009 -0.7133 -0.0000
vn -0.7040 -0.7102 -0.0000
vn 0.7009 0.7133 0.0000
# 8 vertex normals

vt 0.0200 0.0800 0.0000
vt 0.6922 0.0800 0.0000
vt 0.6688 0.1000 0.0000
vt 0.0200 0.1000 0.0000
vt 0.6922 0.0600 0.0000
vt 0.0200 0.0600 0.0000
vt 0.5000 0.1200 0.0000
vt 0.5000 0.1000 0.0000
vt 0.9800 0.1000 0.0000
vt 0.9800 0.1200 0.0000
vt 0.5000 0.0800 0.0000
vt 0.2600 0.1000 0.0000
vt 0.2600 0.0800 0.0000
vt 0.5000 0.0600 0.0000
vt 0.2600 0.0600 0.0000
vt 0.1370 0.1200 0.0000
vt 0.1370 0.1000 0.0000
vt 0.2600 0.1200 0.0000
vt 0.9800 0.0800 0.0000
vt 0.9800 0.0600 0.0000
vt 0.1374 0.0800 0.0000
vt 0.1374 0.0600 0.0000
vt 0.0200 0.1200 0.0000
vt 0.6688 0.1200 0.0000
# 24 texture coords

g RailDir008
f 79/105/44 78/104/44 77/103/43 
f 77/103/43 80/106/44 79/105/44 
f 77/103/45 78/104/45 81/107/45 
f 81/107/45 82/108/45 77/103/45 
f 80/111/46 84/110/46 83/109/46 
f 83/109/46 85/112/46 80/111/46 
f 87/114/43 84/110/43 86/113/43 
f 86/113/43 88/115/43 87/114/43 
f 88/115/47 86/113/45 89/116/45 
f 89/116/45 90/117/47 88/115/47 
f 87/114/49 92/119/48 91/118/48 
f 91/118/48 93/120/49 87/114/49 
f 84/110/46 87/114/49 93/120/49 
f 93/120/49 83/109/46 84/110/46 
f 84/110/43 80/111/44 77/121/43 
f 77/121/43 86/113/43 84/110/43 
f 86/113/45 77/121/45 82/122/45 
f 82/122/45 89/116/45 86/113/45 
f 92/119/44 87/114/43 88/115/43 
f 88/115/43 94/123/44 92/119/44 
f 94/123/50 88/115/47 90/117/47 
f 90/117/47 95/124/50 94/123/50 
f 79/105/46 80/106/46 85/125/46 
f 85/125/46 96/126/46 79/105/46 
# 24 faces

